<svg xmlns="http://www.w3.org/2000/svg" xmlns:xlink="http://www.w3.org/1999/xlink" contentStyleType="text/css" data-diagram-type="ACTIVITY" height="553px" preserveAspectRatio="none" style="width:614px;height:553px;background:#FFFFFF;" version="1.1" viewBox="0 0 614 553" width="614px" zoomAndPan="magnify"><?plantuml 1.2026.6?><defs/><g><g class="title" data-source-line="1"><text fill="#000000" font-family="sans-serif" font-size="14" font-weight="700" lengthAdjust="spacing" textLength="164.377" x="223.8291" y="33.5352">Borrow book workflow</text></g><ellipse cx="248.8311" cy="62.4883" fill="#222222" rx="10" ry="10" style="stroke:#222222;stroke-width:1;"/><rect fill="#F1F1F1" height="34.1328" rx="12.5" ry="12.5" style="stroke:#181818;stroke-width:0.5;" width="111.875" x="192.8936" y="92.4883"/><text fill="#000000" font-family="sans-serif" font-size="12" lengthAdjust="spacing" textLength="91.875" x="202.8936" y="114.0898">Search for book</text><rect fill="#F1F1F1" height="34.1328" rx="12.5" ry="12.5" style="stroke:#181818;stroke-width:0.5;" width="87.043" x="205.3096" y="146.6211"/><text fill="#000000" font-family="sans-serif" font-size="12" lengthAdjust="spacing" textLength="67.043" x="215.3096" y="168.2227">Select book</text><polygon fill="#F1F1F1" points="208.3813,200.7539,289.2808,200.7539,301.2808,212.7539,289.2808,224.7539,208.3813,224.7539,196.3813,212.7539,208.3813,200.7539" style="stroke:#181818;stroke-width:0.5;stroke-linejoin:miter;stroke-miterlimit:10;"/><text fill="#000000" font-family="sans-serif" font-size="11" lengthAdjust="spacing" textLength="80.8994" x="208.3813" y="216.9111">Book available?</text><text fill="#000000" font-family="sans-serif" font-size="11" lengthAdjust="spacing" textLength="17.4829" x="178.8984" y="210.4336">yes</text><text fill="#000000" font-family="sans-serif" font-size="11" lengthAdjust="spacing" textLength="13.5835" x="301.2808" y="210.4336">no</text><rect fill="#F1F1F1" height="34.1328" rx="12.5" ry="12.5" style="stroke:#181818;stroke-width:0.5;" width="86.4102" x="50.7754" y="234.7539"/><text fill="#000000" font-family="sans-serif" font-size="12" lengthAdjust="spacing" textLength="66.4102" x="60.7754" y="256.3555">Create loan</text><rect fill="#F1F1F1" height="34.1328" rx="12.5" ry="12.5" style="stroke:#181818;stroke-width:0.5;" width="92.2695" x="47.8457" y="303.8867"/><text fill="#000000" font-family="sans-serif" font-size="12" lengthAdjust="spacing" textLength="72.2695" x="57.8457" y="325.4883">Set due date</text><rect fill="#F1F1F1" height="34.1328" rx="12.5" ry="12.5" style="stroke:#181818;stroke-width:0.5;" width="155.9609" x="16" y="373.0195"/><text fill="#000000" font-family="sans-serif" font-size="12" lengthAdjust="spacing" textLength="135.9609" x="26" y="394.6211">Mark copy as borrowed</text><rect fill="#F1F1F1" height="34.1328" rx="12.5" ry="12.5" style="stroke:#181818;stroke-width:0.5;" width="128.6855" x="29.6377" y="427.1523"/><text fill="#000000" font-family="sans-serif" font-size="12" lengthAdjust="spacing" textLength="108.6855" x="39.6377" y="448.7539">Show confirmation</text><polygon fill="#F1F1F1" points="348.2788,234.7539,459.0845,234.7539,471.0845,246.7539,459.0845,258.7539,348.2788,258.7539,336.2788,246.7539,348.2788,234.7539" style="stroke:#181818;stroke-width:0.5;stroke-linejoin:miter;stroke-miterlimit:10;"/><text fill="#000000" font-family="sans-serif" font-size="11" lengthAdjust="spacing" textLength="110.8057" x="348.2788" y="250.9111">Reservation allowed?</text><text fill="#000000" font-family="sans-serif" font-size="11" lengthAdjust="spacing" textLength="17.4829" x="318.7959" y="244.4336">yes</text><text fill="#000000" font-family="sans-serif" font-size="11" lengthAdjust="spacing" textLength="13.5835" x="471.0845" y="244.4336">no</text><rect fill="#F1F1F1" height="34.1328" rx="12.5" ry="12.5" style="stroke:#181818;stroke-width:0.5;" width="126.418" x="237.4541" y="268.7539"/><text fill="#000000" font-family="sans-serif" font-size="12" lengthAdjust="spacing" textLength="106.418" x="247.4541" y="290.3555">Create reservation</text><rect fill="#F1F1F1" height="34.1328" rx="12.5" ry="12.5" style="stroke:#181818;stroke-width:0.5;" width="197.4043" x="201.9609" y="337.8867"/><text fill="#000000" font-family="sans-serif" font-size="12" lengthAdjust="spacing" textLength="177.4043" x="211.9609" y="359.4883">Show reservation confirmation</text><rect fill="#F1F1F1" height="34.1328" rx="12.5" ry="12.5" style="stroke:#181818;stroke-width:0.5;" width="174.6699" x="419.3652" y="268.7539"/><text fill="#000000" font-family="sans-serif" font-size="12" lengthAdjust="spacing" textLength="154.6699" x="429.3652" y="290.3555">Show unavailable message</text><polygon fill="#F1F1F1" points="403.6816,378.0195,415.6816,390.0195,403.6816,402.0195,391.6816,390.0195,403.6816,378.0195" style="stroke:#181818;stroke-width:0.5;stroke-linejoin:miter;stroke-miterlimit:10;"/><polygon fill="#F1F1F1" points="248.8311,467.2852,260.8311,479.2852,248.8311,491.2852,236.8311,479.2852,248.8311,467.2852" style="stroke:#181818;stroke-width:0.5;stroke-linejoin:miter;stroke-miterlimit:10;"/><ellipse cx="248.8311" cy="522.2852" fill="none" rx="11" ry="11" style="stroke:#222222;stroke-width:1;"/><ellipse cx="248.8311" cy="522.2852" fill="#222222" rx="6" ry="6" style="stroke:#222222;stroke-width:1;"/><line style="stroke:#181818;stroke-width:1;" x1="248.8311" x2="248.8311" y1="72.4883" y2="92.4883"/><polygon fill="#181818" points="244.8311,82.4883,248.8311,92.4883,252.8311,82.4883,248.8311,86.4883" style="stroke:#181818;stroke-width:1;stroke-linejoin:miter;stroke-miterlimit:10;"/><line style="stroke:#181818;stroke-width:1;" x1="248.8311" x2="248.8311" y1="126.6211" y2="146.6211"/><polygon fill="#181818" points="244.8311,136.6211,248.8311,146.6211,252.8311,136.6211,248.8311,140.6211" style="stroke:#181818;stroke-width:1;stroke-linejoin:miter;stroke-miterlimit:10;"/><line style="stroke:#181818;stroke-width:1;" x1="93.9805" x2="93.9805" y1="268.8867" y2="303.8867"/><polygon fill="#181818" points="89.9805,293.8867,93.9805,303.8867,97.9805,293.8867,93.9805,297.8867" style="stroke:#181818;stroke-width:1;stroke-linejoin:miter;stroke-miterlimit:10;"/><line style="stroke:#181818;stroke-width:1;" x1="93.9805" x2="93.9805" y1="338.0195" y2="373.0195"/><polygon fill="#181818" points="89.9805,363.0195,93.9805,373.0195,97.9805,363.0195,93.9805,367.0195" style="stroke:#181818;stroke-width:1;stroke-linejoin:miter;stroke-miterlimit:10;"/><line style="stroke:#181818;stroke-width:1;" x1="93.9805" x2="93.9805" y1="407.1523" y2="427.1523"/><polygon fill="#181818" points="89.9805,417.1523,93.9805,427.1523,97.9805,417.1523,93.9805,421.1523" style="stroke:#181818;stroke-width:1;stroke-linejoin:miter;stroke-miterlimit:10;"/><line style="stroke:#181818;stroke-width:1;" x1="300.6631" x2="300.6631" y1="302.8867" y2="337.8867"/><polygon fill="#181818" points="296.6631,327.8867,300.6631,337.8867,304.6631,327.8867,300.6631,331.8867" style="stroke:#181818;stroke-width:1;stroke-linejoin:miter;stroke-miterlimit:10;"/><line style="stroke:#181818;stroke-width:1;" x1="336.2788" x2="300.6631" y1="246.7539" y2="246.7539"/><line style="stroke:#181818;stroke-width:1;" x1="300.6631" x2="300.6631" y1="246.7539" y2="268.7539"/><polygon fill="#181818" points="296.6631,258.7539,300.6631,268.7539,304.6631,258.7539,300.6631,262.7539" style="stroke:#181818;stroke-width:1;stroke-linejoin:miter;stroke-miterlimit:10;"/><line style="stroke:#181818;stroke-width:1;" x1="471.0845" x2="506.7002" y1="246.7539" y2="246.7539"/><line style="stroke:#181818;stroke-width:1;" x1="506.7002" x2="506.7002" y1="246.7539" y2="268.7539"/><polygon fill="#181818" points="502.7002,258.7539,506.7002,268.7539,510.7002,258.7539,506.7002,262.7539" style="stroke:#181818;stroke-width:1;stroke-linejoin:miter;stroke-miterlimit:10;"/><line style="stroke:#181818;stroke-width:1;" x1="300.6631" x2="300.6631" y1="372.0195" y2="390.0195"/><line style="stroke:#181818;stroke-width:1;" x1="300.6631" x2="391.6816" y1="390.0195" y2="390.0195"/><polygon fill="#181818" points="381.6816,386.0195,391.6816,390.0195,381.6816,394.0195,385.6816,390.0195" style="stroke:#181818;stroke-width:1;stroke-linejoin:miter;stroke-miterlimit:10;"/><line style="stroke:#181818;stroke-width:1;" x1="506.7002" x2="506.7002" y1="302.8867" y2="390.0195"/><line style="stroke:#181818;stroke-width:1;" x1="506.7002" x2="415.6816" y1="390.0195" y2="390.0195"/><polygon fill="#181818" points="425.6816,386.0195,415.6816,390.0195,425.6816,394.0195,421.6816,390.0195" style="stroke:#181818;stroke-width:1;stroke-linejoin:miter;stroke-miterlimit:10;"/><line style="stroke:#181818;stroke-width:1;" x1="196.3813" x2="93.9805" y1="212.7539" y2="212.7539"/><line style="stroke:#181818;stroke-width:1;" x1="93.9805" x2="93.9805" y1="212.7539" y2="234.7539"/><polygon fill="#181818" points="89.9805,224.7539,93.9805,234.7539,97.9805,224.7539,93.9805,228.7539" style="stroke:#181818;stroke-width:1;stroke-linejoin:miter;stroke-miterlimit:10;"/><line style="stroke:#181818;stroke-width:1;" x1="301.2808" x2="403.6816" y1="212.7539" y2="212.7539"/><line style="stroke:#181818;stroke-width:1;" x1="403.6816" x2="403.6816" y1="212.7539" y2="234.7539"/><polygon fill="#181818" points="399.6816,224.7539,403.6816,234.7539,407.6816,224.7539,403.6816,228.7539" style="stroke:#181818;stroke-width:1;stroke-linejoin:miter;stroke-miterlimit:10;"/><line style="stroke:#181818;stroke-width:1;" x1="93.9805" x2="93.9805" y1="461.2852" y2="479.2852"/><line style="stroke:#181818;stroke-width:1;" x1="93.9805" x2="236.8311" y1="479.2852" y2="479.2852"/><polygon fill="#181818" points="226.8311,475.2852,236.8311,479.2852,226.8311,483.2852,230.8311,479.2852" style="stroke:#181818;stroke-width:1;stroke-linejoin:miter;stroke-miterlimit:10;"/><line style="stroke:#181818;stroke-width:1;" x1="403.6816" x2="403.6816" y1="402.0195" y2="479.2852"/><line style="stroke:#181818;stroke-width:1;" x1="403.6816" x2="260.8311" y1="479.2852" y2="479.2852"/><polygon fill="#181818" points="270.8311,475.2852,260.8311,479.2852,270.8311,483.2852,266.8311,479.2852" style="stroke:#181818;stroke-width:1;stroke-linejoin:miter;stroke-miterlimit:10;"/><line style="stroke:#181818;stroke-width:1;" x1="248.8311" x2="248.8311" y1="180.7539" y2="200.7539"/><polygon fill="#181818" points="244.8311,190.7539,248.8311,200.7539,252.8311,190.7539,248.8311,194.7539" style="stroke:#181818;stroke-width:1;stroke-linejoin:miter;stroke-miterlimit:10;"/><line style="stroke:#181818;stroke-width:1;" x1="248.8311" x2="248.8311" y1="491.2852" y2="511.2852"/><polygon fill="#181818" points="244.8311,501.2852,248.8311,511.2852,252.8311,501.2852,248.8311,505.2852" style="stroke:#181818;stroke-width:1;stroke-linejoin:miter;stroke-miterlimit:10;"/><?plantuml-src NL11Zi8m3Bpd5NCiNw27bU3CPNc1QHqQDSJ8CLJydYJT1SJ5aiVZcR4jM6JiH5KMd4HcBAApZx8ubutKdDiUcNIOu4KRewz8vC7-EXSykbrTfJk5IAV8FnlOn0dTW_F60TkzCXaZ2gM-zaSsZ3V6MD0674Xd379zW7BHhN5uNAbJIJP8ya4lP46A0CVCw99KwMh-ovdrteQW6ElgTu9t1dsJ-tNG73xWBpVWq--VVqklQt7XdEdS3k4q1k_MMXueroS0?></g></svg>