<svg xmlns="http://www.w3.org/2000/svg" xmlns:xlink="http://www.w3.org/1999/xlink" contentStyleType="text/css" data-diagram-type="ACTIVITY" height="493px" preserveAspectRatio="none" style="width:309px;height:493px;background:#FFFFFF;" version="1.1" viewBox="0 0 309 493" width="309px" zoomAndPan="magnify"><?plantuml 1.2026.6?><defs/><g><g class="title" data-source-line="1"><text fill="#000000" font-family="sans-serif" font-size="14" font-weight="700" lengthAdjust="spacing" textLength="244.2344" x="31.4336" y="33.5352">AI-assisted PlantUML review loop</text></g><ellipse cx="152.5508" cy="62.4883" fill="#222222" rx="10" ry="10" style="stroke:#222222;stroke-width:1;"/><rect fill="#F1F1F1" height="34.1328" rx="12.5" ry="12.5" style="stroke:#181818;stroke-width:0.5;" width="267.2363" x="18.9326" y="92.4883"/><text fill="#000000" font-family="sans-serif" font-size="12" lengthAdjust="spacing" textLength="247.2363" x="28.9326" y="114.0898">Describe the diagram goal and constraints</text><rect fill="#F1F1F1" height="34.1328" rx="12.5" ry="12.5" style="stroke:#181818;stroke-width:0.5;" width="177.418" x="63.8418" y="190.6211"/><text fill="#000000" font-family="sans-serif" font-size="12" lengthAdjust="spacing" textLength="157.418" x="73.8418" y="212.2227">Ask AI for PlantUML source</text><rect fill="#F1F1F1" height="34.1328" rx="12.5" ry="12.5" style="stroke:#181818;stroke-width:0.5;" width="134.9551" x="85.0732" y="244.7539"/><text fill="#000000" font-family="sans-serif" font-size="12" lengthAdjust="spacing" textLength="114.9551" x="95.0732" y="266.3555">Render the diagram</text><rect fill="#F1F1F1" height="34.1328" rx="12.5" ry="12.5" style="stroke:#181818;stroke-width:0.5;" width="178.9355" x="63.083" y="298.8867"/><text fill="#000000" font-family="sans-serif" font-size="12" lengthAdjust="spacing" textLength="158.9355" x="73.083" y="320.4883">Review meaning and layout</text><polygon fill="#F1F1F1" points="152.5508,146.6211,164.5508,158.6211,152.5508,170.6211,140.5508,158.6211,152.5508,146.6211" style="stroke:#181818;stroke-width:0.5;stroke-linejoin:miter;stroke-miterlimit:10;"/><polygon fill="#F1F1F1" points="100.5962,353.0195,204.5054,353.0195,216.5054,365.0195,204.5054,377.0195,100.5962,377.0195,88.5962,365.0195,100.5962,353.0195" style="stroke:#181818;stroke-width:0.5;stroke-linejoin:miter;stroke-miterlimit:10;"/><text fill="#000000" font-family="sans-serif" font-size="11" lengthAdjust="spacing" textLength="103.9092" x="100.5962" y="369.1768">Clear and accurate?</text><text fill="#000000" font-family="sans-serif" font-size="11" lengthAdjust="spacing" textLength="13.5835" x="216.5054" y="362.6992">no</text><rect fill="#F1F1F1" height="34.1328" rx="12.5" ry="12.5" style="stroke:#181818;stroke-width:0.5;" width="273.1016" x="16" y="397.0195"/><text fill="#000000" font-family="sans-serif" font-size="12" lengthAdjust="spacing" textLength="253.1016" x="26" y="418.6211">Use in documentation or project discussion</text><ellipse cx="152.5508" cy="462.1523" fill="none" rx="11" ry="11" style="stroke:#222222;stroke-width:1;"/><ellipse cx="152.5508" cy="462.1523" fill="#222222" rx="6" ry="6" style="stroke:#222222;stroke-width:1;"/><line style="stroke:#181818;stroke-width:1;" x1="152.5508" x2="152.5508" y1="72.4883" y2="92.4883"/><polygon fill="#181818" points="148.5508,82.4883,152.5508,92.4883,156.5508,82.4883,152.5508,86.4883" style="stroke:#181818;stroke-width:1;stroke-linejoin:miter;stroke-miterlimit:10;"/><line style="stroke:#181818;stroke-width:1;" x1="152.5508" x2="152.5508" y1="224.7539" y2="244.7539"/><polygon fill="#181818" points="148.5508,234.7539,152.5508,244.7539,156.5508,234.7539,152.5508,238.7539" style="stroke:#181818;stroke-width:1;stroke-linejoin:miter;stroke-miterlimit:10;"/><line style="stroke:#181818;stroke-width:1;" x1="152.5508" x2="152.5508" y1="278.8867" y2="298.8867"/><polygon fill="#181818" points="148.5508,288.8867,152.5508,298.8867,156.5508,288.8867,152.5508,292.8867" style="stroke:#181818;stroke-width:1;stroke-linejoin:miter;stroke-miterlimit:10;"/><line style="stroke:#181818;stroke-width:1;" x1="152.5508" x2="152.5508" y1="170.6211" y2="190.6211"/><polygon fill="#181818" points="148.5508,180.6211,152.5508,190.6211,156.5508,180.6211,152.5508,184.6211" style="stroke:#181818;stroke-width:1;stroke-linejoin:miter;stroke-miterlimit:10;"/><line style="stroke:#181818;stroke-width:1;" x1="216.5054" x2="254.0186" y1="365.0195" y2="365.0195"/><polygon fill="#181818" points="250.0186,271.8203,254.0186,261.8203,258.0186,271.8203,254.0186,267.8203" style="stroke:#181818;stroke-width:1;stroke-linejoin:miter;stroke-miterlimit:10;"/><line style="stroke:#181818;stroke-width:1;" x1="254.0186" x2="254.0186" y1="158.6211" y2="365.0195"/><line style="stroke:#181818;stroke-width:1;" x1="254.0186" x2="164.5508" y1="158.6211" y2="158.6211"/><polygon fill="#181818" points="174.5508,154.6211,164.5508,158.6211,174.5508,162.6211,170.5508,158.6211" style="stroke:#181818;stroke-width:1;stroke-linejoin:miter;stroke-miterlimit:10;"/><line style="stroke:#181818;stroke-width:1;" x1="152.5508" x2="152.5508" y1="333.0195" y2="353.0195"/><polygon fill="#181818" points="148.5508,343.0195,152.5508,353.0195,156.5508,343.0195,152.5508,347.0195" style="stroke:#181818;stroke-width:1;stroke-linejoin:miter;stroke-miterlimit:10;"/><line style="stroke:#181818;stroke-width:1;" x1="152.5508" x2="152.5508" y1="126.6211" y2="146.6211"/><polygon fill="#181818" points="148.5508,136.6211,152.5508,146.6211,156.5508,136.6211,152.5508,140.6211" style="stroke:#181818;stroke-width:1;stroke-linejoin:miter;stroke-miterlimit:10;"/><line style="stroke:#181818;stroke-width:1;" x1="152.5508" x2="152.5508" y1="377.0195" y2="397.0195"/><polygon fill="#181818" points="148.5508,387.0195,152.5508,397.0195,156.5508,387.0195,152.5508,391.0195" style="stroke:#181818;stroke-width:1;stroke-linejoin:miter;stroke-miterlimit:10;"/><line style="stroke:#181818;stroke-width:1;" x1="152.5508" x2="152.5508" y1="431.1523" y2="451.1523"/><polygon fill="#181818" points="148.5508,441.1523,152.5508,451.1523,156.5508,441.1523,152.5508,445.1523" style="stroke:#181818;stroke-width:1;stroke-linejoin:miter;stroke-miterlimit:10;"/><?plantuml-src JOz1QWD130JlymeTxKC-i7i89ha4OZ06Fq2UKTQAPwL5qiJuzvai1kVQ3LNTmL49TXylwCuULE1GKUAq_mIZ7wORLDKb9G-qICCxUJO-4yI5e31EXZDCYXLG2cGL3qEMy34beuKm4i2mysjNm9VQa-xQBDFuLnz92jb_v2DU_JEXi4oheE9TMumFDDmktCTltYgXhJtct0o3NhV03XlHRKh3oGbOe6XkCqbWi0hqAOlfD-NeJi-jlrSP-qrTVW40?></g></svg>