<svg xmlns="http://www.w3.org/2000/svg" xmlns:xlink="http://www.w3.org/1999/xlink" contentStyleType="text/css" data-diagram-type="CLASS" height="504px" preserveAspectRatio="none" style="width:473px;height:504px;background:#FFFFFF;" version="1.1" viewBox="0 0 473 504" width="473px" zoomAndPan="magnify"><?plantuml 1.2026.6?><defs/><g><g class="title" data-source-line="1"><text fill="#000000" font-family="sans-serif" font-size="14" font-weight="700" lengthAdjust="spacing" textLength="158.6416" x="153.8612" y="23.5352">Library domain model</text></g><!--class Book--><g class="entity" data-qualified-name="Book" data-source-line="3" id="ent0001"><rect fill="#F1F1F1" height="97.4648" rx="2.5" ry="2.5" style="stroke:#181818;stroke-width:0.5;" width="119.0986" x="210.31" y="44.4883"/><ellipse cx="249.4588" cy="60.4883" fill="#ADD1B2" rx="11" ry="11" style="stroke:#181818;stroke-width:1;"/><path d="M251.932,66.6313 Q251.3509,66.9302 250.7118,67.0796 Q250.0726,67.229 249.367,67.229 Q246.8602,67.229 245.5404,65.5771 Q244.2205,63.9253 244.2205,60.8042 Q244.2205,57.6748 245.5404,56.0229 Q246.8602,54.3711 249.367,54.3711 Q250.0726,54.3711 250.7201,54.5205 Q251.3675,54.6699 251.932,54.9688 L251.932,57.6914 Q251.3011,57.1104 250.7076,56.8406 Q250.1141,56.5708 249.4832,56.5708 Q248.1385,56.5708 247.4537,57.6375 Q246.7689,58.7041 246.7689,60.8042 Q246.7689,62.896 247.4537,63.9626 Q248.1385,65.0293 249.4832,65.0293 Q250.1141,65.0293 250.7076,64.7595 Q251.3011,64.4897 251.932,63.9087 Z " fill="#000000"/><text fill="#000000" font-family="sans-serif" font-size="14" lengthAdjust="spacing" textLength="33.4346" x="268.8252" y="65.7793">Book</text><line style="stroke:#181818;stroke-width:0.5;" x1="211.31" x2="328.4086" y1="76.4883" y2="76.4883"/><g data-visibility-modifier="PUBLIC_FIELD"><ellipse cx="221.31" cy="90.2324" fill="none" rx="3" ry="3" style="stroke:#038048;stroke-width:1;"/></g><text fill="#000000" font-family="sans-serif" font-size="14" lengthAdjust="spacing" textLength="74.792" x="230.31" y="94.0234">title: string</text><g data-visibility-modifier="PUBLIC_FIELD"><ellipse cx="221.31" cy="106.7207" fill="none" rx="3" ry="3" style="stroke:#038048;stroke-width:1;"/></g><text fill="#000000" font-family="sans-serif" font-size="14" lengthAdjust="spacing" textLength="93.0986" x="230.31" y="110.5117">author: string</text><g data-visibility-modifier="PUBLIC_FIELD"><ellipse cx="221.31" cy="123.209" fill="none" rx="3" ry="3" style="stroke:#038048;stroke-width:1;"/></g><text fill="#000000" font-family="sans-serif" font-size="14" lengthAdjust="spacing" textLength="77.1094" x="230.31" y="127">isbn: string</text><line style="stroke:#181818;stroke-width:0.5;" x1="211.31" x2="328.4086" y1="133.9531" y2="133.9531"/></g><!--class BookCopy--><g class="entity" data-qualified-name="BookCopy" data-source-line="9" id="ent0002"><rect fill="#F1F1F1" height="113.9531" rx="2.5" ry="2.5" style="stroke:#181818;stroke-width:0.5;" width="232.6709" x="153.52" y="201.9483"/><ellipse cx="231.6821" cy="217.9483" fill="#ADD1B2" rx="11" ry="11" style="stroke:#181818;stroke-width:1;"/><path d="M234.1553,224.0913 Q233.5742,224.3902 232.935,224.5396 Q232.2959,224.689 231.5903,224.689 Q229.0835,224.689 227.7637,223.0371 Q226.4438,221.3853 226.4438,218.2642 Q226.4438,215.1348 227.7637,213.4829 Q229.0835,211.8311 231.5903,211.8311 Q232.2959,211.8311 232.9433,211.9805 Q233.5908,212.1299 234.1553,212.4287 L234.1553,215.1514 Q233.5244,214.5704 232.9309,214.3006 Q232.3374,214.0308 231.7065,214.0308 Q230.3618,214.0308 229.677,215.0975 Q228.9922,216.1641 228.9922,218.2642 Q228.9922,220.356 229.677,221.4226 Q230.3618,222.4893 231.7065,222.4893 Q232.3374,222.4893 232.9309,222.2195 Q233.5244,221.9497 234.1553,221.3687 Z " fill="#000000"/><text fill="#000000" font-family="sans-serif" font-size="14" lengthAdjust="spacing" textLength="67.8467" x="252.1821" y="223.2393">BookCopy</text><line style="stroke:#181818;stroke-width:0.5;" x1="154.52" x2="385.1909" y1="233.9483" y2="233.9483"/><g data-visibility-modifier="PUBLIC_FIELD"><ellipse cx="164.52" cy="247.6924" fill="none" rx="3" ry="3" style="stroke:#038048;stroke-width:1;"/></g><text fill="#000000" font-family="sans-serif" font-size="14" lengthAdjust="spacing" textLength="93.167" x="173.52" y="251.4834">copyId: string</text><g data-visibility-modifier="PUBLIC_FIELD"><ellipse cx="164.52" cy="264.1807" fill="none" rx="3" ry="3" style="stroke:#038048;stroke-width:1;"/></g><text fill="#000000" font-family="sans-serif" font-size="14" lengthAdjust="spacing" textLength="136.6572" x="173.52" y="267.9717">format: CopyFormat</text><g data-visibility-modifier="PUBLIC_FIELD"><ellipse cx="164.52" cy="280.669" fill="none" rx="3" ry="3" style="stroke:#038048;stroke-width:1;"/></g><text fill="#000000" font-family="sans-serif" font-size="14" lengthAdjust="spacing" textLength="125.0293" x="173.52" y="284.46">status: BookStatus</text><g data-visibility-modifier="PUBLIC_FIELD"><ellipse cx="164.52" cy="297.1573" fill="none" rx="3" ry="3" style="stroke:#038048;stroke-width:1;"/></g><text fill="#000000" font-family="sans-serif" font-size="14" lengthAdjust="spacing" textLength="206.6709" x="173.52" y="300.9483">maxConcurrentLoans: number</text><line style="stroke:#181818;stroke-width:0.5;" x1="154.52" x2="385.1909" y1="307.9014" y2="307.9014"/></g><!--class Member--><g class="entity" data-qualified-name="Member" data-source-line="16" id="ent0003"><rect fill="#F1F1F1" height="80.9766" rx="2.5" ry="2.5" style="stroke:#181818;stroke-width:0.5;" width="111.7158" x="7" y="218.4383"/><ellipse cx="33.0013" cy="234.4383" fill="#ADD1B2" rx="11" ry="11" style="stroke:#181818;stroke-width:1;"/><path d="M35.4744,240.5813 Q34.8934,240.8802 34.2542,241.0296 Q33.615,241.179 32.9095,241.179 Q30.4026,241.179 29.0828,239.5271 Q27.763,237.8753 27.763,234.7542 Q27.763,231.6248 29.0828,229.9729 Q30.4026,228.3211 32.9095,228.3211 Q33.615,228.3211 34.2625,228.4705 Q34.91,228.6199 35.4744,228.9188 L35.4744,231.6414 Q34.8436,231.0604 34.25,230.7906 Q33.6565,230.5208 33.0257,230.5208 Q31.681,230.5208 30.9961,231.5875 Q30.3113,232.6541 30.3113,234.7542 Q30.3113,236.846 30.9961,237.9126 Q31.681,238.9793 33.0257,238.9793 Q33.6565,238.9793 34.25,238.7095 Q34.8436,238.4397 35.4744,237.8587 Z " fill="#000000"/><text fill="#000000" font-family="sans-serif" font-size="14" lengthAdjust="spacing" textLength="55.2686" x="49.446" y="239.7293">Member</text><line style="stroke:#181818;stroke-width:0.5;" x1="8" x2="117.7158" y1="250.4383" y2="250.4383"/><g data-visibility-modifier="PUBLIC_FIELD"><ellipse cx="18" cy="264.1824" fill="none" rx="3" ry="3" style="stroke:#038048;stroke-width:1;"/></g><text fill="#000000" font-family="sans-serif" font-size="14" lengthAdjust="spacing" textLength="85.7158" x="27" y="267.9734">name: string</text><g data-visibility-modifier="PUBLIC_FIELD"><ellipse cx="18" cy="280.6707" fill="none" rx="3" ry="3" style="stroke:#038048;stroke-width:1;"/></g><text fill="#000000" font-family="sans-serif" font-size="14" lengthAdjust="spacing" textLength="85.1211" x="27" y="284.4617">email: string</text><line style="stroke:#181818;stroke-width:0.5;" x1="8" x2="117.7158" y1="291.4148" y2="291.4148"/></g><!--class Loan--><g class="entity" data-qualified-name="Loan" data-source-line="21" id="ent0004"><rect fill="#F1F1F1" height="97.4648" rx="2.5" ry="2.5" style="stroke:#181818;stroke-width:0.5;" width="145.875" x="10.92" y="384.1483"/><ellipse cx="63.3653" cy="400.1483" fill="#ADD1B2" rx="11" ry="11" style="stroke:#181818;stroke-width:1;"/><path d="M65.8385,406.2913 Q65.2574,406.5902 64.6182,406.7396 Q63.9791,406.889 63.2735,406.889 Q60.7667,406.889 59.4469,405.2371 Q58.127,403.5853 58.127,400.4642 Q58.127,397.3348 59.4469,395.6829 Q60.7667,394.0311 63.2735,394.0311 Q63.9791,394.0311 64.6265,394.1805 Q65.274,394.3299 65.8385,394.6288 L65.8385,397.3514 Q65.2076,396.7704 64.6141,396.5006 Q64.0206,396.2308 63.3897,396.2308 Q62.045,396.2308 61.3602,397.2975 Q60.6754,398.3641 60.6754,400.4642 Q60.6754,402.556 61.3602,403.6226 Q62.045,404.6893 63.3897,404.6893 Q64.0206,404.6893 64.6141,404.4195 Q65.2076,404.1497 65.8385,403.5687 Z " fill="#000000"/><text fill="#000000" font-family="sans-serif" font-size="14" lengthAdjust="spacing" textLength="32.4844" x="83.8653" y="405.4393">Loan</text><line style="stroke:#181818;stroke-width:0.5;" x1="11.92" x2="155.795" y1="416.1483" y2="416.1483"/><g data-visibility-modifier="PUBLIC_FIELD"><ellipse cx="21.92" cy="429.8924" fill="none" rx="3" ry="3" style="stroke:#038048;stroke-width:1;"/></g><text fill="#000000" font-family="sans-serif" font-size="14" lengthAdjust="spacing" textLength="119.875" x="30.92" y="433.6834">borrowedAt: Date</text><g data-visibility-modifier="PUBLIC_FIELD"><ellipse cx="21.92" cy="446.3807" fill="none" rx="3" ry="3" style="stroke:#038048;stroke-width:1;"/></g><text fill="#000000" font-family="sans-serif" font-size="14" lengthAdjust="spacing" textLength="80.3086" x="30.92" y="450.1717">dueAt: Date</text><g data-visibility-modifier="PUBLIC_FIELD"><ellipse cx="21.92" cy="462.869" fill="none" rx="3" ry="3" style="stroke:#038048;stroke-width:1;"/></g><text fill="#000000" font-family="sans-serif" font-size="14" lengthAdjust="spacing" textLength="119.3965" x="30.92" y="466.66">returnedAt: Date?</text><line style="stroke:#181818;stroke-width:0.5;" x1="11.92" x2="155.795" y1="473.6131" y2="473.6131"/></g><!--class CopyFormat--><g class="entity" data-qualified-name="CopyFormat" data-source-line="27" id="ent0005"><rect fill="#F1F1F1" height="80.9766" rx="2.5" ry="2.5" style="stroke:#181818;stroke-width:0.5;" width="114.2842" x="201.72" y="392.3983"/><ellipse cx="216.72" cy="408.3983" fill="#EB937F" rx="11" ry="11" style="stroke:#181818;stroke-width:1;"/><path d="M220.3343,414.8983 L212.6145,414.8983 L212.6145,402.5052 L220.3343,402.5052 L220.3343,404.6634 L215.0633,404.6634 L215.0633,407.3363 L219.8362,407.3363 L219.8362,409.4945 L215.0633,409.4945 L215.0633,412.7401 L220.3343,412.7401 Z " fill="#000000"/><text fill="#000000" font-family="sans-serif" font-size="14" lengthAdjust="spacing" textLength="82.2842" x="230.72" y="413.6893">CopyFormat</text><line style="stroke:#181818;stroke-width:0.5;" x1="202.72" x2="315.0042" y1="424.3983" y2="424.3983"/><text fill="#000000" font-family="sans-serif" font-size="14" lengthAdjust="spacing" textLength="53.874" x="207.72" y="441.9334">Physical</text><text fill="#000000" font-family="sans-serif" font-size="14" lengthAdjust="spacing" textLength="44.3242" x="207.72" y="458.4217">Digital</text><line style="stroke:#181818;stroke-width:0.5;" x1="202.72" x2="315.0042" y1="465.3748" y2="465.3748"/></g><!--class BookStatus--><g class="entity" data-qualified-name="BookStatus" data-source-line="32" id="ent0006"><rect fill="#F1F1F1" height="113.9531" rx="2.5" ry="2.5" style="stroke:#181818;stroke-width:0.5;" width="107.0039" x="351.36" y="375.9083"/><ellipse cx="366.36" cy="391.9083" fill="#EB937F" rx="11" ry="11" style="stroke:#181818;stroke-width:1;"/><path d="M369.9743,398.4083 L362.2545,398.4083 L362.2545,386.0152 L369.9743,386.0152 L369.9743,388.1734 L364.7033,388.1734 L364.7033,390.8463 L369.4762,390.8463 L369.4762,393.0045 L364.7033,393.0045 L364.7033,396.2501 L369.9743,396.2501 Z " fill="#000000"/><text fill="#000000" font-family="sans-serif" font-size="14" lengthAdjust="spacing" textLength="75.0039" x="380.36" y="397.1993">BookStatus</text><line style="stroke:#181818;stroke-width:0.5;" x1="352.36" x2="457.3639" y1="407.9083" y2="407.9083"/><text fill="#000000" font-family="sans-serif" font-size="14" lengthAdjust="spacing" textLength="61.1201" x="357.36" y="425.4434">Available</text><text fill="#000000" font-family="sans-serif" font-size="14" lengthAdjust="spacing" textLength="61.1748" x="357.36" y="441.9317">Reserved</text><text fill="#000000" font-family="sans-serif" font-size="14" lengthAdjust="spacing" textLength="64.1074" x="357.36" y="458.42">Borrowed</text><text fill="#000000" font-family="sans-serif" font-size="14" lengthAdjust="spacing" textLength="28.4375" x="357.36" y="474.9083">Lost</text><line style="stroke:#181818;stroke-width:0.5;" x1="352.36" x2="457.3639" y1="481.8614" y2="481.8614"/></g><!--reverse link Book to BookCopy--><g class="link" data-entity-1="ent0001" data-entity-2="ent0002" data-link-type="aggregation" data-source-line="39" id="lnk7"><path codeLine="39" d="M269.86,154.0083 C269.86,172.6983 269.86,182.2683 269.86,201.6983" fill="none" id="Book-backto-BookCopy" style="stroke:#181818;stroke-width:1;"/><polygon fill="none" points="269.86,142.0083,265.86,148.0083,269.86,154.0083,273.86,148.0083,269.86,142.0083" style="stroke:#181818;stroke-width:1;stroke-linejoin:miter;stroke-miterlimit:10;"/><text fill="#000000" font-family="sans-serif" font-size="13" lengthAdjust="spacing" textLength="8.2202" x="261.3131" y="162.5139">1</text><text fill="#000000" font-family="sans-serif" font-size="13" lengthAdjust="spacing" textLength="22.7119" x="246.5633" y="191.397">1..*</text></g><!--link Member to Loan--><g class="link" data-entity-1="ent0003" data-entity-2="ent0004" data-link-type="association" data-source-line="40" id="lnk8"><path codeLine="40" d="M67.73,299.8083 C70.79,324.9083 74.77,357.4583 78,383.9583" fill="none" id="Member-Loan" style="stroke:#181818;stroke-width:1;"/><text fill="#000000" font-family="sans-serif" font-size="13" lengthAdjust="spacing" textLength="8.2202" x="59.8865" y="320.1122">1</text><text fill="#000000" font-family="sans-serif" font-size="13" lengthAdjust="spacing" textLength="22.7119" x="53.5763" y="373.2624">0..*</text></g><!--link BookCopy to Loan--><g class="link" data-entity-1="ent0002" data-entity-2="ent0004" data-link-type="association" data-source-line="41" id="lnk9"><path codeLine="41" d="M208.95,316.2283 C185.33,338.0783 158.55,362.8283 135.85,383.8183" fill="none" id="BookCopy-Loan" style="stroke:#181818;stroke-width:1;"/><text fill="#000000" font-family="sans-serif" font-size="13" lengthAdjust="spacing" textLength="8.2202" x="193.458" y="336.3075">1</text><text fill="#000000" font-family="sans-serif" font-size="13" lengthAdjust="spacing" textLength="22.7119" x="119.6646" y="373.4544">0..*</text></g><!--link BookCopy to CopyFormat--><g class="link" data-entity-1="ent0002" data-entity-2="ent0005" data-link-type="dependency" data-source-line="42" id="lnk10"><path codeLine="42" d="M266.26,316.2283 C264.67,341.0083 263.1689,364.5485 261.7289,387.0785" fill="none" id="BookCopy-to-CopyFormat" style="stroke:#181818;stroke-width:1;"/><polygon fill="#181818" points="261.41,392.0683,265.9759,383.3417,261.7289,387.0785,257.9922,382.8315,261.41,392.0683" style="stroke:#181818;stroke-width:1;stroke-linejoin:miter;stroke-miterlimit:10;"/></g><!--link BookCopy to BookStatus--><g class="link" data-entity-1="ent0002" data-entity-2="ent0006" data-link-type="dependency" data-source-line="43" id="lnk11"><path codeLine="43" d="M314.06,316.2283 C328.98,335.2383 342.543,352.505 357.463,371.515" fill="none" id="BookCopy-to-BookStatus" style="stroke:#181818;stroke-width:1;"/><polygon fill="#181818" points="360.55,375.4483,358.14,365.8988,357.463,371.515,351.8468,370.838,360.55,375.4483" style="stroke:#181818;stroke-width:1;stroke-linejoin:miter;stroke-miterlimit:10;"/></g><?plantuml-src VL7BJiGm3BptAw8UGLt1jGVGFeI4L2G4N-0sPZVQ9aQEir0X_fqaAdq8YLCdu_5uN8kH7bLZMWOUb2OBnYbB6lkYw7hmNks8pkghKEfQIHBNoWiRTymC13aHhoZZMpSHtqkNFRqFerCNuQDUzRqHMv1Q9TL3nfds0X9ydGrUCywqXSyzkIumevE6m4M92xP5dcS-ONgF4ntOTNICg_P_WoQliQKbPlf0lOsf3Y2OIHrmzMQKm6uMtIShZ54MYsI_vzFWJGTzX0TpD1BHhtBUBIktbvWCsZuDU46FV44TuMwC4s53Nb9tlarvMoggglZTRAxAwKyNu_gfdAetkPhMAwPZ_5UhghlbBLRy7FW7?></g></svg>