<svg xmlns="http://www.w3.org/2000/svg" xmlns:xlink="http://www.w3.org/1999/xlink" contentStyleType="text/css" data-diagram-type="DESCRIPTION" height="719px" preserveAspectRatio="none" style="width:342px;height:719px;background:#FFFFFF;" version="1.1" viewBox="0 0 342 719" width="342px" zoomAndPan="magnify"><?plantuml 1.2026.6?><defs/><g><g class="title" data-source-line="2"><text fill="#000000" font-family="sans-serif" font-size="14" font-weight="700" lengthAdjust="spacing" textLength="284.7852" x="25.511" y="23.5352">Library application component diagram</text></g><!--entity Member--><g class="entity" data-qualified-name="Member" data-source-line="4" id="ent0001"><ellipse cx="33.6343" cy="51.4883" fill="#F1F1F1" rx="8" ry="8" style="stroke:#181818;stroke-width:0.5;"/><path d="M33.6343,59.4883 L33.6343,86.4883 M20.6343,67.4883 L46.6343,67.4883 M33.6343,86.4883 L20.6343,101.4883 M33.6343,86.4883 L46.6343,101.4883" fill="none" style="stroke:#181818;stroke-width:0.5;"/><text fill="#000000" font-family="sans-serif" font-size="14" lengthAdjust="spacing" textLength="46.8262" x="6" y="116.5234">Library</text><text fill="#000000" font-family="sans-serif" font-size="14" lengthAdjust="spacing" textLength="55.2686" x="6" y="133.0117">Member</text></g><!--entity Librarian--><g class="entity" data-qualified-name="Librarian" data-source-line="5" id="ent0002"><ellipse cx="175.6393" cy="59.7283" fill="#F1F1F1" rx="8" ry="8" style="stroke:#181818;stroke-width:0.5;"/><path d="M175.6393,67.7283 L175.6393,94.7283 M162.6393,75.7283 L188.6393,75.7283 M175.6393,94.7283 L162.6393,109.7283 M175.6393,94.7283 L188.6393,109.7283" fill="none" style="stroke:#181818;stroke-width:0.5;"/><text fill="#000000" font-family="sans-serif" font-size="14" lengthAdjust="spacing" textLength="59.9785" x="145.65" y="124.7634">Librarian</text></g><!--entity WebApp--><g class="entity" data-qualified-name="WebApp" data-source-line="7" id="ent0003"><rect fill="#F1F1F1" height="62.9766" rx="2.5" ry="2.5" style="stroke:#181818;stroke-width:0.5;" width="100.2998" x="54.48" y="212.9583"/><rect fill="#F1F1F1" height="10" style="stroke:#181818;stroke-width:0.5;" width="15" x="134.7798" y="217.9583"/><rect fill="#F1F1F1" height="2" style="stroke:#181818;stroke-width:0.5;" width="4" x="132.7798" y="219.9583"/><rect fill="#F1F1F1" height="2" style="stroke:#181818;stroke-width:0.5;" width="4" x="132.7798" y="223.9583"/><text fill="#000000" font-family="sans-serif" font-size="14" lengthAdjust="spacing" textLength="46.8262" x="69.48" y="246.4934">Library</text><text fill="#000000" font-family="sans-serif" font-size="14" lengthAdjust="spacing" textLength="60.2998" x="69.48" y="262.9817">Web App</text></g><!--entity Catalog--><g class="entity" data-qualified-name="Catalog" data-source-line="8" id="ent0004"><rect fill="#F1F1F1" height="62.9766" rx="2.5" ry="2.5" style="stroke:#181818;stroke-width:0.5;" width="91.7617" x="87.75" y="492.9183"/><rect fill="#F1F1F1" height="10" style="stroke:#181818;stroke-width:0.5;" width="15" x="159.5117" y="497.9183"/><rect fill="#F1F1F1" height="2" style="stroke:#181818;stroke-width:0.5;" width="4" x="157.5117" y="499.9183"/><rect fill="#F1F1F1" height="2" style="stroke:#181818;stroke-width:0.5;" width="4" x="157.5117" y="503.9183"/><text fill="#000000" font-family="sans-serif" font-size="14" lengthAdjust="spacing" textLength="51.7617" x="102.75" y="526.4534">Catalog</text><text fill="#000000" font-family="sans-serif" font-size="14" lengthAdjust="spacing" textLength="47.332" x="102.75" y="542.9417">Service</text></g><!--entity Loan--><g class="entity" data-qualified-name="Loan" data-source-line="9" id="ent0005"><rect fill="#F1F1F1" height="62.9766" rx="2.5" ry="2.5" style="stroke:#181818;stroke-width:0.5;" width="87.332" x="195.97" y="352.9383"/><rect fill="#F1F1F1" height="10" style="stroke:#181818;stroke-width:0.5;" width="15" x="263.302" y="357.9383"/><rect fill="#F1F1F1" height="2" style="stroke:#181818;stroke-width:0.5;" width="4" x="261.302" y="359.9383"/><rect fill="#F1F1F1" height="2" style="stroke:#181818;stroke-width:0.5;" width="4" x="261.302" y="363.9383"/><text fill="#000000" font-family="sans-serif" font-size="14" lengthAdjust="spacing" textLength="32.4844" x="210.97" y="386.4734">Loan</text><text fill="#000000" font-family="sans-serif" font-size="14" lengthAdjust="spacing" textLength="47.332" x="210.97" y="402.9617">Service</text></g><!--entity DB--><g class="entity" data-qualified-name="DB" data-source-line="11" id="ent0006"><path d="M158.3,642.8883 C158.3,632.8883 199.6325,632.8883 199.6325,632.8883 C199.6325,632.8883 240.965,632.8883 240.965,642.8883 L240.965,684.8648 C240.965,694.8648 199.6325,694.8648 199.6325,694.8648 C199.6325,694.8648 158.3,694.8648 158.3,684.8648 L158.3,642.8883" fill="#F1F1F1" style="stroke:#181818;stroke-width:0.5;"/><path d="M158.3,642.8883 C158.3,652.8883 199.6325,652.8883 199.6325,652.8883 C199.6325,652.8883 240.965,652.8883 240.965,642.8883" fill="none" style="stroke:#181818;stroke-width:0.5;"/><text fill="#000000" font-family="sans-serif" font-size="14" lengthAdjust="spacing" textLength="46.8262" x="168.3" y="670.4234">Library</text><text fill="#000000" font-family="sans-serif" font-size="14" lengthAdjust="spacing" textLength="62.665" x="168.3" y="686.9117">Database</text></g><!--link Member to WebApp--><g class="link" data-entity-1="ent0001" data-entity-2="ent0003" data-link-type="dependency" data-source-line="13" id="lnk7"><path d="M23.91,136.4183 C22.75,151.8483 23.89,168.7383 30.63,182.9583 C36.04,194.3583 40.983,201.0305 50.573,209.4005" fill="none" id="Member-to-WebApp" style="stroke:#181818;stroke-width:1;"/><polygon fill="#181818" points="54.34,212.6883,50.1896,203.7566,50.573,209.4005,44.9291,209.7839,54.34,212.6883" style="stroke:#181818;stroke-width:1;stroke-linejoin:miter;stroke-miterlimit:10;"/><text fill="#000000" font-family="sans-serif" font-size="13" lengthAdjust="spacing" textLength="100.9468" x="31.63" y="179.5266">search / borrow</text></g><!--link Librarian to WebApp--><g class="link" data-entity-1="ent0002" data-entity-2="ent0003" data-link-type="dependency" data-source-line="14" id="lnk8"><path d="M160.62,128.1583 C153.66,145.0683 145.07,165.1683 136.63,182.9583 C132,192.7283 128.9659,198.7828 123.9559,208.2128" fill="none" id="Librarian-to-WebApp" style="stroke:#181818;stroke-width:1;"/><polygon fill="#181818" points="121.61,212.6283,129.365,206.5571,123.9559,208.2128,122.3002,202.8036,121.61,212.6283" style="stroke:#181818;stroke-width:1;stroke-linejoin:miter;stroke-miterlimit:10;"/><text fill="#000000" font-family="sans-serif" font-size="13" lengthAdjust="spacing" textLength="92.4028" x="144.51" y="179.5266">manage books</text></g><!--link WebApp to Catalog--><g class="link" data-entity-1="ent0003" data-entity-2="ent0004" data-link-type="dependency" data-source-line="15" id="lnk9"><path d="M98.22,276.1883 C92.08,310.5183 84.94,367.6083 93.63,415.9183 C98.47,442.7583 107.562,467.0836 116.852,488.1436" fill="none" id="WebApp-to-Catalog" style="stroke:#181818;stroke-width:1;"/><polygon fill="#181818" points="118.87,492.7183,118.8974,482.8695,116.852,488.1436,111.5779,486.0982,118.87,492.7183" style="stroke:#181818;stroke-width:1;stroke-linejoin:miter;stroke-miterlimit:10;"/><text fill="#000000" font-family="sans-serif" font-size="13" lengthAdjust="spacing" textLength="83.5859" x="94.63" y="389.4966">search books</text></g><!--link WebApp to Loan--><g class="link" data-entity-1="ent0003" data-entity-2="ent0005" data-link-type="dependency" data-source-line="16" id="lnk10"><path d="M134.93,276.4183 C157.16,299.1383 183.7332,326.2944 205.9432,348.9944" fill="none" id="WebApp-to-Loan" style="stroke:#181818;stroke-width:1;"/><polygon fill="#181818" points="209.44,352.5683,206.005,343.3379,205.9432,348.9944,200.2867,348.9327,209.44,352.5683" style="stroke:#181818;stroke-width:1;stroke-linejoin:miter;stroke-miterlimit:10;"/><text fill="#000000" font-family="sans-serif" font-size="13" lengthAdjust="spacing" textLength="98.7314" x="181.22" y="319.5066">borrow / return</text></g><!--link Loan to Catalog--><g class="link" data-entity-1="ent0005" data-entity-2="ent0004" data-link-type="dependency" data-source-line="17" id="lnk11"><path d="M195.75,404.2083 C168.84,416.7183 138.16,433.1383 130.63,445.9183 C122.51,459.7183 121.7868,472.5016 124.1968,487.5016" fill="none" id="Loan-to-Catalog" style="stroke:#181818;stroke-width:1;"/><polygon fill="#181818" points="124.99,492.4383,127.5117,482.9177,124.1968,487.5016,119.613,484.1868,124.99,492.4383" style="stroke:#181818;stroke-width:1;stroke-linejoin:miter;stroke-miterlimit:10;"/><text fill="#000000" font-family="sans-serif" font-size="13" lengthAdjust="spacing" textLength="107.231" x="131.63" y="459.4866">check availability</text></g><!--link Catalog to DB--><g class="link" data-entity-1="ent0004" data-entity-2="ent0006" data-link-type="dependency" data-source-line="18" id="lnk12"><path d="M142.5,556.2683 C147.13,570.7483 153.36,588.0583 160.63,602.8883 C165.56,612.9283 169.0989,619.1466 175.1689,628.4066" fill="none" id="Catalog-to-DB" style="stroke:#181818;stroke-width:1;"/><polygon fill="#181818" points="177.91,632.5883,176.3213,622.8684,175.1689,628.4066,169.6307,627.2542,177.91,632.5883" style="stroke:#181818;stroke-width:1;stroke-linejoin:miter;stroke-miterlimit:10;"/><text fill="#000000" font-family="sans-serif" font-size="13" lengthAdjust="spacing" textLength="77.7651" x="161.63" y="599.4566">read catalog</text></g><!--link Loan to DB--><g class="link" data-entity-1="ent0005" data-entity-2="ent0006" data-link-type="dependency" data-source-line="19" id="lnk13"><path d="M246.42,416.2583 C254.5,459.2783 264.49,539.1983 243.63,602.8883 C240.18,613.4483 237.0438,619.6514 230.4638,628.5914" fill="none" id="Loan-to-DB" style="stroke:#181818;stroke-width:1;"/><polygon fill="#181818" points="227.5,632.6183,236.0564,627.741,230.4638,628.5914,229.6134,622.9989,227.5,632.6183" style="stroke:#181818;stroke-width:1;stroke-linejoin:miter;stroke-miterlimit:10;"/><text fill="#000000" font-family="sans-serif" font-size="13" lengthAdjust="spacing" textLength="69.7671" x="257.04" y="529.4766">store loans</text></g><?plantuml-src PP6nRiCm34HtVWMHFUZUeK1JZ-tKeKiMIYOS8R9eK6oA_7rbMRLZTAFk7audocH24tHY9YFsGTbRa0GMB3A-1wUaTwHfYi7JxA2NSPB4oGfDWz88GDv4yT3eS_hWqR4Ua38kuvu8bAgtdW2sq2tbYns-JbD5orp6H-oDZA8Cv_J9UWkUAzR4NPnGsaEp0j0Nr57cXmkx9bMgEm4ivV5uV6a5y1apa_eBFfMLgSeFh8_OOoCb6hX0SitGr1be3RUWVyHShzXBVBb7sRurGPNt2Vx2_efqen39XHZi3d_c37QdmYXJZxwjPSseLYvVmXYBbdy1?></g></svg>