<svg xmlns="http://www.w3.org/2000/svg" xmlns:xlink="http://www.w3.org/1999/xlink" contentStyleType="text/css" data-diagram-type="DESCRIPTION" height="540px" preserveAspectRatio="none" style="width:376px;height:540px;background:#FFFFFF;" version="1.1" viewBox="0 0 376 540" width="376px" zoomAndPan="magnify"><?plantuml 1.2026.6?><defs/><g><g class="title" data-source-line="1"><text fill="#000000" font-family="sans-serif" font-size="14" font-weight="700" lengthAdjust="spacing" textLength="215.8174" x="76.8494" y="23.5352">Serverless library deployment</text></g><!--cluster Cloud Platform--><g class="cluster" data-qualified-name="Cloud Platform" data-source-line="8" id="ent0004"><path d="M31.6056,298.4574 C39.5969,288.5537 45.9275,290.9637 52.5669,299.957 C59.4484,289.1127 66.0974,286.7456 74.6821,298.2734 C80.0644,289.9568 88.4231,289.6093 94.5841,297.3055 C101.1553,284.2817 112.4908,287.1038 118.7178,297.6578 C124.7139,289.6214 134.719,288.6045 138.9748,299.5182 C147.0533,287.1489 155.2362,288.692 163.5599,299.2554 C167.8548,288.8178 176.9272,287.2343 183.2905,297.2612 C189.5424,287.5398 197.888,286.7637 203.9968,297.4067 C210.7761,288.3359 219.9798,287.7379 225.2423,298.9921 C233.1384,288.7922 243.7913,289.0232 250.7795,300.0826 C255.1962,290.9713 261.9377,289.5063 269.1057,297.0565 C275.303,286.5247 286.2645,287.7504 292.0891,297.4792 C300.4227,285.6616 311.0994,288.2607 316.3246,300.598 C324.4548,291.7795 336.4728,293.4145 340.994,304.9683 C341.1059,304.9704 341.144,305.0539 341.0983,305.1477 C355.0675,312.3859 358.337,320.3358 345.1317,331.7017 C358.1767,338.2012 359.161,346.9437 348.5139,356.6545 C360.4523,362.184 359.9774,372.1886 350.3772,379.4767 C360.4999,387.2747 361.5163,397.2624 349.7698,404.5302 C361.1487,411.5207 360.302,421.8624 349.777,428.8594 C361.1641,436.5745 361.4553,449.6651 347.1347,454.7573 C357.788,463.0176 358.6989,471.2704 346.8458,479.2653 C358.5801,496.73 354.6154,505.7498 333.994,509.4283 C334.3064,509.4902 334.4029,509.7455 334.1852,509.9884 C328.7556,521.6012 321.2074,523.0278 312.8806,512.8168 C307.4498,521.4285 297.9493,522.3881 293.0663,512.2384 C285.8262,520.8173 278.3554,520.7834 272.5242,510.6886 C265.8562,522.697 257.876,521.9661 249.7172,512.254 C242.3481,522.8728 235.1498,522.0205 228.8679,511.1968 C223.0313,521.2078 212.5674,523.0865 205.8091,512.2146 C198.2318,523.4419 191.6153,523.0023 183.8891,512.3639 C178.1536,522.3723 169.0767,522.2594 163.6624,512.0427 C158.0505,523.2479 149.4744,523.8093 141.8376,514.162 C133.7101,525.1944 126.8333,523.2575 119.0907,513.7359 C112.7085,523.8892 100.8588,525.2042 94.4432,513.7739 C88.3317,523.4165 82.1684,522.0122 76.4585,513.3786 C68.752,522.8844 58.4162,524.743 52.1671,511.8015 C38.0406,524.3878 26.2561,521.5963 21.994,502.4283 C23.1096,501.6904 24.3188,502.0213 24.5244,503.4777 C12.9755,496.8381 13.5624,489.5753 22.3719,480.9873 C10.2912,474.8593 8.5517,461.1928 20.1957,453.2063 C7.542,445.7115 7.1017,436.5697 19.7726,428.6387 C8.1209,421.3494 6,414.0059 17.1175,404.2389 C6.4776,397.4159 6.383,386.196 19.2155,381.5428 C6.8543,374.5432 6.768,362.1589 19.8639,355.8005 C7.3425,346.8608 8.5253,336.8553 21.7343,329.7641 C8.2097,316.3864 13.7955,304.7879 28.994,297.9683 C30.1112,296.9706 30.9241,297.1284 31.6056,298.4574" fill="none" style="stroke:#181818;stroke-width:1;"/><text fill="#000000" font-family="sans-serif" font-size="14" font-weight="700" lengthAdjust="spacing" textLength="108.2813" x="127.3534" y="316.5034">Cloud Platform</text></g><!--entity EdgeCdn--><g class="entity" data-qualified-name="Cloud Platform.EdgeCdn" data-source-line="9" id="ent0005"><polygon fill="#F1F1F1" points="30.054,334.9683,40.054,324.9683,137.928,324.9683,137.928,361.4566,127.928,371.4566,30.054,371.4566,30.054,334.9683" style="stroke:#181818;stroke-width:0.5;stroke-linejoin:miter;stroke-miterlimit:10;"/><line style="stroke:#181818;stroke-width:0.5;" x1="127.928" x2="137.928" y1="334.9683" y2="324.9683"/><line style="stroke:#181818;stroke-width:0.5;" x1="30.054" x2="127.928" y1="334.9683" y2="334.9683"/><line style="stroke:#181818;stroke-width:0.5;" x1="127.928" x2="127.928" y1="334.9683" y2="371.4566"/><text fill="#000000" font-family="sans-serif" font-size="14" lengthAdjust="spacing" textLength="67.874" x="45.054" y="358.5034">Edge CDN</text></g><!--entity Assets--><g class="entity" data-qualified-name="Cloud Platform.Assets" data-source-line="10" id="ent0006"><rect fill="#F1F1F1" height="52.9766" rx="35" ry="35" style="stroke:#181818;stroke-width:0.5;" width="119.9482" x="30.024" y="448.4483"/><text fill="#000000" font-family="sans-serif" font-size="14" lengthAdjust="spacing" textLength="99.9482" x="40.024" y="471.9834">Object Storage</text><text fill="#000000" font-family="sans-serif" font-size="14" lengthAdjust="spacing" textLength="94.6025" x="44.4537" y="488.4717">(Static Assets)</text></g><!--entity Api--><g class="entity" data-qualified-name="Cloud Platform.Api" data-source-line="11" id="ent0007"><polygon fill="#F1F1F1" points="173.284,334.9683,183.284,324.9683,300.6951,324.9683,300.6951,361.4566,290.6951,371.4566,173.284,371.4566,173.284,334.9683" style="stroke:#181818;stroke-width:0.5;stroke-linejoin:miter;stroke-miterlimit:10;"/><line style="stroke:#181818;stroke-width:0.5;" x1="290.6951" x2="300.6951" y1="334.9683" y2="324.9683"/><line style="stroke:#181818;stroke-width:0.5;" x1="173.284" x2="290.6951" y1="334.9683" y2="334.9683"/><line style="stroke:#181818;stroke-width:0.5;" x1="290.6951" x2="290.6951" y1="334.9683" y2="371.4566"/><text fill="#000000" font-family="sans-serif" font-size="14" lengthAdjust="spacing" textLength="87.4111" x="188.284" y="358.5034">Managed API</text></g><!--entity Database--><g class="entity" data-qualified-name="Cloud Platform.Database" data-source-line="12" id="ent0008"><path d="M184.674,462.1983 C184.674,452.1983 258.9967,452.1983 258.9967,452.1983 C258.9967,452.1983 333.3195,452.1983 333.3195,462.1983 L333.3195,487.6866 C333.3195,497.6866 258.9967,497.6866 258.9967,497.6866 C258.9967,497.6866 184.674,497.6866 184.674,487.6866 L184.674,462.1983" fill="#F1F1F1" style="stroke:#181818;stroke-width:0.5;"/><path d="M184.674,462.1983 C184.674,472.1983 258.9967,472.1983 258.9967,472.1983 C258.9967,472.1983 333.3195,472.1983 333.3195,462.1983" fill="none" style="stroke:#181818;stroke-width:0.5;"/><text fill="#000000" font-family="sans-serif" font-size="14" lengthAdjust="spacing" textLength="128.6455" x="194.674" y="489.7334">Managed Database</text></g><!--entity Member--><g class="entity" data-qualified-name="Member" data-source-line="3" id="ent0001"><ellipse cx="100.9962" cy="51.4883" fill="#F1F1F1" rx="8" ry="8" style="stroke:#181818;stroke-width:0.5;"/><path d="M100.9962,59.4883 L100.9962,86.4883 M87.9962,67.4883 L113.9962,67.4883 M100.9962,86.4883 L87.9962,101.4883 M100.9962,86.4883 L113.9962,101.4883" fill="none" style="stroke:#181818;stroke-width:0.5;"/><text fill="#000000" font-family="sans-serif" font-size="14" lengthAdjust="spacing" textLength="106.5244" x="47.734" y="116.5234">Library Member</text></g><!--entity Librarian--><g class="entity" data-qualified-name="Librarian" data-source-line="4" id="ent0002"><ellipse cx="218.9932" cy="51.4883" fill="#F1F1F1" rx="8" ry="8" style="stroke:#181818;stroke-width:0.5;"/><path d="M218.9932,59.4883 L218.9932,86.4883 M205.9932,67.4883 L231.9932,67.4883 M218.9932,86.4883 L205.9932,101.4883 M218.9932,86.4883 L231.9932,101.4883" fill="none" style="stroke:#181818;stroke-width:0.5;"/><text fill="#000000" font-family="sans-serif" font-size="14" lengthAdjust="spacing" textLength="59.9785" x="189.004" y="116.5234">Librarian</text></g><!--entity Browser--><g class="entity" data-qualified-name="Browser" data-source-line="6" id="ent0003"><polygon fill="#F1F1F1" points="113.074,190.4783,123.074,180.4783,206.907,180.4783,206.907,216.9666,196.907,226.9666,113.074,226.9666,113.074,190.4783" style="stroke:#181818;stroke-width:0.5;stroke-linejoin:miter;stroke-miterlimit:10;"/><line style="stroke:#181818;stroke-width:0.5;" x1="196.907" x2="206.907" y1="190.4783" y2="180.4783"/><line style="stroke:#181818;stroke-width:0.5;" x1="113.074" x2="196.907" y1="190.4783" y2="190.4783"/><line style="stroke:#181818;stroke-width:0.5;" x1="196.907" x2="196.907" y1="190.4783" y2="226.9666"/><text fill="#000000" font-family="sans-serif" font-size="14" lengthAdjust="spacing" textLength="53.833" x="128.074" y="214.0134">Browser</text></g><!--link Member to Browser--><g class="link" data-entity-1="ent0001" data-entity-2="ent0003" data-link-type="dependency" data-source-line="15" id="lnk9"><path d="M119.334,119.6983 C129.014,139.4483 138.3661,158.5473 146.6761,175.5273" fill="none" id="Member-to-Browser" style="stroke:#181818;stroke-width:1;"/><polygon fill="#181818" points="148.874,180.0183,148.5106,170.1761,146.6761,175.5273,141.325,173.6928,148.874,180.0183" style="stroke:#181818;stroke-width:1;stroke-linejoin:miter;stroke-miterlimit:10;"/></g><!--link Librarian to Browser--><g class="link" data-entity-1="ent0002" data-entity-2="ent0003" data-link-type="dependency" data-source-line="16" id="lnk10"><path d="M200.654,119.6983 C190.974,139.4483 181.6219,158.5473 173.3119,175.5273" fill="none" id="Librarian-to-Browser" style="stroke:#181818;stroke-width:1;"/><polygon fill="#181818" points="171.114,180.0183,178.663,173.6928,173.3119,175.5273,171.4774,170.1761,171.114,180.0183" style="stroke:#181818;stroke-width:1;stroke-linejoin:miter;stroke-miterlimit:10;"/></g><!--link Browser to EdgeCdn--><g class="link" data-entity-1="ent0003" data-entity-2="ent0005" data-link-type="dependency" data-source-line="17" id="lnk11"><path d="M139.284,227.2383 C131.894,236.0583 123.934,246.5583 117.994,256.9683 C105.544,278.7783 97.478,301.2274 91.718,320.0374" fill="none" id="Browser-to-EdgeCdn" style="stroke:#181818;stroke-width:1;"/><polygon fill="#181818" points="90.254,324.8183,96.7139,317.3839,91.718,320.0374,89.0645,315.0415,90.254,324.8183" style="stroke:#181818;stroke-width:1;stroke-linejoin:miter;stroke-miterlimit:10;"/><text fill="#000000" font-family="sans-serif" font-size="13" lengthAdjust="spacing" textLength="61.3882" x="118.994" y="270.5366">loads app</text></g><!--link EdgeCdn to Assets--><g class="link" data-entity-1="ent0005" data-entity-2="ent0006" data-link-type="dependency" data-source-line="18" id="lnk12"><path d="M72.704,371.8383 C67.344,385.2983 62.744,402.7583 65.994,418.4483 C68.074,428.5283 70.0112,434.4682 74.1612,443.5782" fill="none" id="EdgeCdn-to-Assets" style="stroke:#181818;stroke-width:1;"/><polygon fill="#181818" points="76.234,448.1283,76.1431,438.2798,74.1612,443.5782,68.8629,441.5963,76.234,448.1283" style="stroke:#181818;stroke-width:1;stroke-linejoin:miter;stroke-miterlimit:10;"/><text fill="#000000" font-family="sans-serif" font-size="13" lengthAdjust="spacing" textLength="116.8667" x="66.994" y="415.0166">fetches origin files</text></g><!--link Browser to Api--><g class="link" data-entity-1="ent0003" data-entity-2="ent0007" data-link-type="dependency" data-source-line="19" id="lnk13"><path d="M172.194,227.2983 C186.614,253.9783 208.0764,293.6997 222.4764,320.3397" fill="none" id="Browser-to-Api" style="stroke:#181818;stroke-width:1;"/><polygon fill="#181818" points="224.854,324.7383,224.0932,314.9189,222.4764,320.3397,217.0555,318.723,224.854,324.7383" style="stroke:#181818;stroke-width:1;stroke-linejoin:miter;stroke-miterlimit:10;"/><text fill="#000000" font-family="sans-serif" font-size="13" lengthAdjust="spacing" textLength="51.9937" x="197.184" y="270.5366">calls API</text></g><!--link Api to Database--><g class="link" data-entity-1="ent0007" data-entity-2="ent0008" data-link-type="dependency" data-source-line="20" id="lnk14"><path d="M240.974,371.7983 C244.994,394.5383 250.2642,424.4845 254.2442,447.0145" fill="none" id="Api-to-Database" style="stroke:#181818;stroke-width:1;"/><polygon fill="#181818" points="255.114,451.9383,257.4874,442.3797,254.2442,447.0145,249.6093,443.7713,255.114,451.9383" style="stroke:#181818;stroke-width:1;stroke-linejoin:miter;stroke-miterlimit:10;"/><text fill="#000000" font-family="sans-serif" font-size="13" lengthAdjust="spacing" textLength="104.0317" x="249.654" y="415.0166">reads and writes</text></g><?plantuml-src LP6_JiCm4CPtFyKf4mnz0GQaaZ8WqL8fAyl5lXGZnuvy1rM5U7SSsud8vFk-t_sLnOeZw2X-KtJ43Cxs4UCD34qkt4RoeXHg2H6QrugEDFOK6q2kuJR1eiziLKhvO0YQfnYkN0jhh9HsuSj0q-Rdx5264CS6VXH0gNes5uBsSCfbisYDJv3JH4oaUUi_IGjqHRzxkEi4nMhOCvFmVQuhyThpY3xb6jYVNmgUR6861NlaV_nGdPoq2FMhLBaRThl7zPBrt8rRt-pLvU41N433WDEa5c_cPSc41nBzGGmXselrCDZqCvjEQT-Kfj4vdczGivxzPSK48-KHti0rMY7-0m00?></g></svg>