<svg xmlns="http://www.w3.org/2000/svg" xmlns:xlink="http://www.w3.org/1999/xlink" contentStyleType="text/css" data-diagram-type="SEQUENCE" height="374px" preserveAspectRatio="none" style="width:519px;height:374px;background:#FFFFFF;" version="1.1" viewBox="0 0 519 374" width="519px" zoomAndPan="magnify"><?plantuml 1.2026.6?><defs/><g><g class="title" data-source-line="2"><text fill="#000000" font-family="sans-serif" font-size="14" font-weight="700" lengthAdjust="spacing" textLength="127.9688" x="192.1782" y="28.5352">Borrowing a book</text></g><g><title>Library App</title><rect fill="#FFFFFF" height="205.1738" style="stroke:#181818;stroke-width:1;" width="10" x="177.519" y="150.2871"/></g><g><title>Loan Service</title><rect fill="#FFFFFF" height="146.5527" style="stroke:#181818;stroke-width:1;" width="10" x="304.7979" y="179.5977"/></g><g class="participant-lifeline" data-entity-uid="part1" data-qualified-name="Member" data-source-line="4" id="part1-lifeline"><g><title>Library Member</title><rect fill="#000000" fill-opacity="0.00000" height="254.4844" width="8" x="57.2622" y="118.9766"/><line style="stroke:#181818;stroke-width:0.5;stroke-dasharray:5,5;" x1="61" x2="61" y1="118.9766" y2="373.4609"/></g></g><g class="participant-lifeline" data-entity-uid="part2" data-qualified-name="App" data-source-line="6" id="part2-lifeline"><g><title>Library App</title><rect fill="#000000" fill-opacity="0.00000" height="254.4844" width="8" x="178.519" y="118.9766"/><line style="stroke:#181818;stroke-width:0.5;stroke-dasharray:5,5;" x1="182.25" x2="182.25" y1="118.9766" y2="373.4609"/></g></g><g class="participant-lifeline" data-entity-uid="part3" data-qualified-name="LoanService" data-source-line="7" id="part3-lifeline"><g><title>Loan Service</title><rect fill="#000000" fill-opacity="0.00000" height="254.4844" width="8" x="305.7979" y="118.9766"/><line style="stroke:#181818;stroke-width:0.5;stroke-dasharray:5,5;" x1="309.6748" x2="309.6748" y1="118.9766" y2="373.4609"/></g></g><g class="participant-lifeline" data-entity-uid="part4" data-qualified-name="Database" data-source-line="9" id="part4-lifeline"><g><title>Library Database</title><rect fill="#000000" fill-opacity="0.00000" height="254.4844" width="8" x="444.3647" y="118.9766"/><line style="stroke:#181818;stroke-width:0.5;stroke-dasharray:5,5;" x1="447.4043" x2="447.4043" y1="118.9766" y2="373.4609"/></g></g><g class="participant participant-head" data-entity-uid="part1" data-qualified-name="Member" data-source-line="4" id="part1-head"><text fill="#000000" font-family="sans-serif" font-size="14" lengthAdjust="spacing" textLength="106.5244" x="5" y="116.0234">Library Member</text><ellipse cx="61.2622" cy="50.9883" fill="#E2E2F0" rx="8" ry="8" style="stroke:#181818;stroke-width:0.5;"/><path d="M61.2622,58.9883 L61.2622,85.9883 M48.2622,66.9883 L74.2622,66.9883 M61.2622,85.9883 L48.2622,100.9883 M61.2622,85.9883 L74.2622,100.9883" fill="none" style="stroke:#181818;stroke-width:0.5;"/></g><g class="participant participant-head" data-entity-uid="part2" data-qualified-name="App" data-source-line="6" id="part2-head"><rect fill="#E2E2F0" height="30.4883" rx="2.5" ry="2.5" style="stroke:#181818;stroke-width:0.5;" width="92.5381" x="136.25" y="87.4883"/><text fill="#000000" font-family="sans-serif" font-size="14" lengthAdjust="spacing" textLength="78.5381" x="143.25" y="108.0234">Library App</text></g><g class="participant participant-head" data-entity-uid="part3" data-qualified-name="LoanService" data-source-line="7" id="part3-head"><rect fill="#E2E2F0" height="30.4883" rx="2.5" ry="2.5" style="stroke:#181818;stroke-width:0.5;" width="98.2461" x="260.6748" y="87.4883"/><text fill="#000000" font-family="sans-serif" font-size="14" lengthAdjust="spacing" textLength="84.2461" x="267.6748" y="108.0234">Loan Service</text></g><g class="participant participant-head" data-entity-uid="part4" data-qualified-name="Database" data-source-line="9" id="part4-head"><text fill="#000000" font-family="sans-serif" font-size="14" lengthAdjust="spacing" textLength="113.9209" x="388.4043" y="116.0234">Library Database</text><path d="M430.3647,66.4883 C430.3647,56.4883 448.3647,56.4883 448.3647,56.4883 C448.3647,56.4883 466.3647,56.4883 466.3647,66.4883 L466.3647,92.4883 C466.3647,102.4883 448.3647,102.4883 448.3647,102.4883 C448.3647,102.4883 430.3647,102.4883 430.3647,92.4883 L430.3647,66.4883" fill="#E2E2F0" style="stroke:#181818;stroke-width:0.5;"/><path d="M430.3647,66.4883 C430.3647,76.4883 448.3647,76.4883 448.3647,76.4883 C448.3647,76.4883 466.3647,76.4883 466.3647,66.4883" fill="none" style="stroke:#181818;stroke-width:0.5;"/></g><g><title>Library App</title><rect fill="#FFFFFF" height="205.1738" style="stroke:#181818;stroke-width:1;" width="10" x="177.519" y="150.2871"/></g><g><title>Loan Service</title><rect fill="#FFFFFF" height="146.5527" style="stroke:#181818;stroke-width:1;" width="10" x="304.7979" y="179.5977"/></g><g class="message" data-entity-1="part1" data-entity-2="part2" data-source-line="11" id="msg1"><polygon fill="#181818" points="165.519,146.2871,175.519,150.2871,165.519,154.2871,169.519,150.2871" style="stroke:#181818;stroke-width:1;stroke-linejoin:miter;stroke-miterlimit:10;"/><line style="stroke:#181818;stroke-width:1;" x1="61.2622" x2="171.519" y1="150.2871" y2="150.2871"/><text fill="#000000" font-family="sans-serif" font-size="13" lengthAdjust="spacing" textLength="79.9678" x="68.2622" y="145.5449">Borrow book</text></g><g class="message" data-entity-1="part2" data-entity-2="part3" data-source-line="13" id="msg2"><polygon fill="#181818" points="292.7979,175.5977,302.7979,179.5977,292.7979,183.5977,296.7979,179.5977" style="stroke:#181818;stroke-width:1;stroke-linejoin:miter;stroke-miterlimit:10;"/><line style="stroke:#181818;stroke-width:1;" x1="187.519" x2="298.7979" y1="179.5977" y2="179.5977"/><text fill="#000000" font-family="sans-serif" font-size="13" lengthAdjust="spacing" textLength="81.5483" x="194.519" y="174.8555">Request loan</text></g><g class="message" data-entity-1="part3" data-entity-2="part4" data-source-line="15" id="msg3"><polygon fill="#181818" points="436.3647,204.9082,446.3647,208.9082,436.3647,212.9082,440.3647,208.9082" style="stroke:#181818;stroke-width:1;stroke-linejoin:miter;stroke-miterlimit:10;"/><line style="stroke:#181818;stroke-width:1;" x1="314.7979" x2="442.3647" y1="208.9082" y2="208.9082"/><text fill="#000000" font-family="sans-serif" font-size="13" lengthAdjust="spacing" textLength="109.5669" x="321.7979" y="204.166">Check availability</text></g><g class="message" data-entity-1="part4" data-entity-2="part3" data-source-line="16" id="msg4"><polygon fill="#181818" points="325.7979,234.2188,315.7979,238.2188,325.7979,242.2188,321.7979,238.2188" style="stroke:#181818;stroke-width:1;stroke-linejoin:miter;stroke-miterlimit:10;"/><line style="stroke:#181818;stroke-width:1;stroke-dasharray:2,2;" x1="319.7979" x2="447.3647" y1="238.2188" y2="238.2188"/><text fill="#000000" font-family="sans-serif" font-size="13" lengthAdjust="spacing" textLength="104.6221" x="331.7979" y="233.4766">Book is available</text></g><g class="message" data-entity-1="part3" data-entity-2="part4" data-source-line="17" id="msg5"><polygon fill="#181818" points="436.3647,263.5293,446.3647,267.5293,436.3647,271.5293,440.3647,267.5293" style="stroke:#181818;stroke-width:1;stroke-linejoin:miter;stroke-miterlimit:10;"/><line style="stroke:#181818;stroke-width:1;" x1="314.7979" x2="442.3647" y1="267.5293" y2="267.5293"/><text fill="#000000" font-family="sans-serif" font-size="13" lengthAdjust="spacing" textLength="71.9443" x="321.7979" y="262.7871">Create loan</text></g><g class="message" data-entity-1="part4" data-entity-2="part3" data-source-line="18" id="msg6"><polygon fill="#181818" points="325.7979,292.8398,315.7979,296.8398,325.7979,300.8398,321.7979,296.8398" style="stroke:#181818;stroke-width:1;stroke-linejoin:miter;stroke-miterlimit:10;"/><line style="stroke:#181818;stroke-width:1;stroke-dasharray:2,2;" x1="319.7979" x2="447.3647" y1="296.8398" y2="296.8398"/><text fill="#000000" font-family="sans-serif" font-size="13" lengthAdjust="spacing" textLength="70.2368" x="331.7979" y="292.0977">Loan saved</text></g><g class="message" data-entity-1="part3" data-entity-2="part2" data-source-line="19" id="msg7"><polygon fill="#181818" points="198.519,322.1504,188.519,326.1504,198.519,330.1504,194.519,326.1504" style="stroke:#181818;stroke-width:1;stroke-linejoin:miter;stroke-miterlimit:10;"/><line style="stroke:#181818;stroke-width:1;stroke-dasharray:2,2;" x1="192.519" x2="308.7979" y1="326.1504" y2="326.1504"/><text fill="#000000" font-family="sans-serif" font-size="13" lengthAdjust="spacing" textLength="93.2788" x="204.519" y="321.4082">Loan approved</text></g><g class="message" data-entity-1="part2" data-entity-2="part1" data-source-line="21" id="msg8"><polygon fill="#181818" points="72.2622,351.4609,62.2622,355.4609,72.2622,359.4609,68.2622,355.4609" style="stroke:#181818;stroke-width:1;stroke-linejoin:miter;stroke-miterlimit:10;"/><line style="stroke:#181818;stroke-width:1;stroke-dasharray:2,2;" x1="66.2622" x2="181.519" y1="355.4609" y2="355.4609"/><text fill="#000000" font-family="sans-serif" font-size="13" lengthAdjust="spacing" textLength="92.2568" x="78.2622" y="350.7188">Show due date</text></g><?plantuml-src VP5DKiCm38NtFeMc-rwW2sOeB653Jo37WcWQ8cEhWTuUsNMQy3DTsPO_wJq_znm8NaNKovTJre5WBod99uzlWE15ZivXfv9WyyG-OJh3CxrxIXl0tBREHKpA7KSSTU7kOwoGhRy0mH4Eb2Rkg1AbqCxE1LJqc6aPzDWgbPqFpbt4ONjN563NZ5yycsMUKAcAbskZLYf6lz37YRB2ODK5NpjPyzO-2rllGq_T4N127j3pm7fsrzlj7wMz6GBECp_Sd9oesAYcReoi2MQSAFoSTSsY0XXZai84-lU1DHThQK7kuD1RVk54O7z0wouZlm40?></g></svg>