<svg xmlns="http://www.w3.org/2000/svg" xmlns:xlink="http://www.w3.org/1999/xlink" contentStyleType="text/css" data-diagram-type="STATE" height="685px" preserveAspectRatio="none" style="width:270px;height:685px;background:#FFFFFF;" version="1.1" viewBox="0 0 270 685" width="270px" zoomAndPan="magnify"><?plantuml 1.2026.6?><defs/><g><g class="title" data-source-line="1"><text fill="#000000" font-family="sans-serif" font-size="14" font-weight="700" lengthAdjust="spacing" textLength="139.8359" x="61.9118" y="23.5352">Loan state machine</text></g><g class="start_entity" data-qualified-name=".start." data-source-line="3" id="ent0001"><ellipse cx="142.79" cy="53.4883" fill="#222222" rx="10" ry="10" style="stroke:#222222;stroke-width:1;"/></g><g class="entity" data-qualified-name="Requested" data-source-line="3" id="ent0002"><rect fill="#F1F1F1" height="50" rx="12.5" ry="12.5" style="stroke:#181818;stroke-width:0.5;" width="90.9365" x="97.33" y="124.4883"/><line style="stroke:#181818;stroke-width:0.5;" x1="97.33" x2="188.2665" y1="150.9766" y2="150.9766"/><text fill="#000000" font-family="sans-serif" font-size="14" lengthAdjust="spacing" textLength="70.9365" x="107.33" y="143.0234">Requested</text></g><g class="entity" data-qualified-name="Active" data-source-line="4" id="ent0004"><rect fill="#F1F1F1" height="50" rx="12.5" ry="12.5" style="stroke:#181818;stroke-width:0.5;" width="61.1592" x="39.21" y="251.4883"/><line style="stroke:#181818;stroke-width:0.5;" x1="39.21" x2="100.3692" y1="277.9766" y2="277.9766"/><text fill="#000000" font-family="sans-serif" font-size="14" lengthAdjust="spacing" textLength="41.1592" x="49.21" y="270.0234">Active</text></g><g class="entity" data-qualified-name="Rejected" data-source-line="5" id="ent0006"><rect fill="#F1F1F1" height="50" rx="12.5" ry="12.5" style="stroke:#181818;stroke-width:0.5;" width="77.7295" x="177.93" y="331.4883"/><line style="stroke:#181818;stroke-width:0.5;" x1="177.93" x2="255.6595" y1="357.9766" y2="357.9766"/><text fill="#000000" font-family="sans-serif" font-size="14" lengthAdjust="spacing" textLength="57.7295" x="187.93" y="350.0234">Rejected</text></g><g class="entity" data-qualified-name="Returned" data-source-line="6" id="ent0008"><rect fill="#F1F1F1" height="50" rx="12.5" ry="12.5" style="stroke:#181818;stroke-width:0.5;" width="81.6055" x="81.99" y="538.4883"/><line style="stroke:#181818;stroke-width:0.5;" x1="81.99" x2="163.5955" y1="564.9766" y2="564.9766"/><text fill="#000000" font-family="sans-serif" font-size="14" lengthAdjust="spacing" textLength="61.6055" x="91.99" y="557.0234">Returned</text></g><g class="entity" data-qualified-name="Overdue" data-source-line="7" id="ent0010"><rect fill="#F1F1F1" height="50" rx="12.5" ry="12.5" style="stroke:#181818;stroke-width:0.5;" width="76.9502" x="85.32" y="411.4883"/><line style="stroke:#181818;stroke-width:0.5;" x1="85.32" x2="162.2702" y1="437.9766" y2="437.9766"/><text fill="#000000" font-family="sans-serif" font-size="14" lengthAdjust="spacing" textLength="56.9502" x="95.32" y="430.0234">Overdue</text></g><g class="end_entity" data-qualified-name=".end." data-source-line="9" id="ent0013"><ellipse cx="169.79" cy="660.4883" fill="none" rx="11" ry="11" style="stroke:#222222;stroke-width:1;"/><ellipse cx="169.79" cy="660.4883" fill="#222222" rx="6" ry="6" style="stroke:#222222;stroke-width:1;"/></g><!--link *start* to Requested--><g class="link" data-entity-1="ent0001" data-entity-2="ent0002" data-link-type="dependency" data-source-line="3" id="lnk3"><path d="M142.79,63.8483 C142.79,77.7783 142.79,99.4383 142.79,119.1383" fill="none" id="*start*-to-Requested" style="stroke:#181818;stroke-width:1;"/><polygon fill="#181818" points="142.79,124.1383,146.79,115.1383,142.79,119.1383,138.79,115.1383,142.79,124.1383" style="stroke:#181818;stroke-width:1;stroke-linejoin:miter;stroke-miterlimit:10;"/></g><!--link Requested to Active--><g class="link" data-entity-1="ent0002" data-entity-2="ent0004" data-link-type="dependency" data-source-line="4" id="lnk5"><path d="M126.32,174.9483 C120.32,184.1083 113.59,194.6783 107.79,204.4883 C98.77,219.7783 91.6588,232.9332 84.4488,246.7832" fill="none" id="Requested-to-Active" style="stroke:#181818;stroke-width:1;"/><polygon fill="#181818" points="82.14,251.2183,89.8438,245.0822,84.4488,246.7832,82.7478,241.3882,82.14,251.2183" style="stroke:#181818;stroke-width:1;stroke-linejoin:miter;stroke-miterlimit:10;"/><text fill="#000000" font-family="sans-serif" font-size="13" lengthAdjust="spacing" textLength="50.8193" x="108.79" y="218.0566">approve</text></g><!--link Requested to Rejected--><g class="link" data-entity-1="ent0002" data-entity-2="ent0006" data-link-type="dependency" data-source-line="5" id="lnk7"><path d="M152.48,174.8883 C156.1,184.1283 160.2,194.7683 163.79,204.4883 C180.22,248.9183 196.6629,296.417 206.8929,326.347" fill="none" id="Requested-to-Rejected" style="stroke:#181818;stroke-width:1;"/><polygon fill="#181818" points="208.51,331.0783,209.3842,321.2683,206.8929,326.347,201.8141,323.8557,208.51,331.0783" style="stroke:#181818;stroke-width:1;stroke-linejoin:miter;stroke-miterlimit:10;"/><text fill="#000000" font-family="sans-serif" font-size="13" lengthAdjust="spacing" textLength="35.2803" x="170.12" y="218.0566">reject</text></g><!--link Active to Returned--><g class="link" data-entity-1="ent0004" data-entity-2="ent0008" data-link-type="dependency" data-source-line="6" id="lnk9"><path d="M55.3,301.7183 C35.82,337.5883 6,406.5083 27.79,461.4883 C40.21,492.8183 63.6044,516.9049 85.7444,535.1849" fill="none" id="Active-to-Returned" style="stroke:#181818;stroke-width:1;"/><polygon fill="#181818" points="89.6,538.3683,85.2066,529.5536,85.7444,535.1849,80.1131,535.7226,89.6,538.3683" style="stroke:#181818;stroke-width:1;stroke-linejoin:miter;stroke-miterlimit:10;"/><text fill="#000000" font-family="sans-serif" font-size="13" lengthAdjust="spacing" textLength="38.8794" x="28.79" y="441.5566">return</text></g><!--link Active to Overdue--><g class="link" data-entity-1="ent0004" data-entity-2="ent0010" data-link-type="dependency" data-source-line="7" id="lnk11"><path d="M59.89,301.8183 C52.58,323.6983 45.81,356.1983 57.79,381.4883 C63.75,394.0683 70.2723,401.6327 81.1523,410.0327" fill="none" id="Active-to-Overdue" style="stroke:#181818;stroke-width:1;"/><polygon fill="#181818" points="85.11,413.0883,80.4306,404.4221,81.1523,410.0327,75.5417,410.7544,85.11,413.0883" style="stroke:#181818;stroke-width:1;stroke-linejoin:miter;stroke-miterlimit:10;"/><text fill="#000000" font-family="sans-serif" font-size="13" lengthAdjust="spacing" textLength="101.6704" x="58.79" y="361.5566">due date passes</text></g><!--link Overdue to Returned--><g class="link" data-entity-1="ent0010" data-entity-2="ent0008" data-link-type="dependency" data-source-line="8" id="lnk12"><path d="M123.6,461.8883 C123.42,483.9083 123.1986,511.1484 123.0286,533.1484" fill="none" id="Overdue-to-Returned" style="stroke:#181818;stroke-width:1;"/><polygon fill="#181818" points="122.99,538.1483,127.0594,529.1795,123.0286,533.1484,119.0597,529.1176,122.99,538.1483" style="stroke:#181818;stroke-width:1;stroke-linejoin:miter;stroke-miterlimit:10;"/><text fill="#000000" font-family="sans-serif" font-size="13" lengthAdjust="spacing" textLength="38.8794" x="124.35" y="505.0566">return</text></g><!--link Returned to *end*--><g class="link" data-entity-1="ent0008" data-entity-2="ent0013" data-link-type="dependency" data-source-line="9" id="lnk14"><path d="M134.9,588.9483 C144.8,608.9683 156.0444,631.686 162.9944,645.746" fill="none" id="Returned-to-*end*" style="stroke:#181818;stroke-width:1;"/><polygon fill="#181818" points="165.21,650.2283,164.8077,640.3876,162.9944,645.746,157.636,643.9327,165.21,650.2283" style="stroke:#181818;stroke-width:1;stroke-linejoin:miter;stroke-miterlimit:10;"/></g><!--link Rejected to *end*--><g class="link" data-entity-1="ent0006" data-entity-2="ent0013" data-link-type="dependency" data-source-line="10" id="lnk15"><path d="M212.99,381.9483 C203.31,444.1483 178.8084,601.5477 172.1784,644.1777" fill="none" id="Rejected-to-*end*" style="stroke:#181818;stroke-width:1;"/><polygon fill="#181818" points="171.41,649.1183,176.7456,640.8399,172.1784,644.1777,168.8406,639.6105,171.41,649.1183" style="stroke:#181818;stroke-width:1;stroke-linejoin:miter;stroke-miterlimit:10;"/></g><?plantuml-src ROx12i8m44Jl-nLx5le3FGZU1Q5NyH2I0LCqZSacts-tZK74op8xZnb6l3p0vyK4pc84_3JsxWE8heSR3yEH9xmAii1HLvj_ik8hU6GJOregVl246LQVaTCcgGLsA2M51bL-mqj5SaMRzJeT5KtEoFGX_okwetXTJtr2Czu0?></g></svg>