<svg xmlns="http://www.w3.org/2000/svg" xmlns:xlink="http://www.w3.org/1999/xlink" contentStyleType="text/css" data-diagram-type="DESCRIPTION" height="476px" preserveAspectRatio="none" style="width:358px;height:476px;background:#FFFFFF;" version="1.1" viewBox="0 0 358 476" width="358px" zoomAndPan="magnify"><?plantuml 1.2026.6?><defs/><g><g class="title" data-source-line="2"><text fill="#000000" font-family="sans-serif" font-size="14" font-weight="700" lengthAdjust="spacing" textLength="181.4121" x="85.1989" y="23.5352">Library system use cases</text></g><!--cluster Library System--><g class="cluster" data-qualified-name="Library System" data-source-line="7" id="ent0003"><rect fill="none" height="418" rx="2.5" ry="2.5" style="stroke:#181818;stroke-width:1;" width="188.29" x="156.52" y="44.4883"/><text fill="#000000" font-family="sans-serif" font-size="14" font-weight="700" lengthAdjust="spacing" textLength="107.2354" x="197.0473" y="60.0234">Library System</text></g><!--entity SearchBooks--><g class="entity" data-qualified-name="Library System.SearchBooks" data-source-line="8" id="ent0004"><ellipse cx="250.6745" cy="161.4932" fill="#F1F1F1" rx="73.4745" ry="17.0949" style="stroke:#181818;stroke-width:0.5;"/><text fill="#000000" font-family="sans-serif" font-size="14" lengthAdjust="spacing" textLength="114.3242" x="193.5124" y="166.2373">Search for books</text></g><!--entity BorrowBook--><g class="entity" data-qualified-name="Library System.BorrowBook" data-source-line="9" id="ent0005"><ellipse cx="250.6693" cy="94.4901" fill="#F1F1F1" rx="62.6093" ry="14.9219" style="stroke:#181818;stroke-width:0.5;"/><text fill="#000000" font-family="sans-serif" font-size="14" lengthAdjust="spacing" textLength="86.1191" x="207.6098" y="99.2343">Borrow book</text></g><!--entity ReturnBook--><g class="entity" data-qualified-name="Library System.ReturnBook" data-source-line="10" id="ent0006"><ellipse cx="250.6721" cy="293.4907" fill="#F1F1F1" rx="61.7121" ry="14.7424" style="stroke:#181818;stroke-width:0.5;"/><text fill="#000000" font-family="sans-serif" font-size="14" lengthAdjust="spacing" textLength="83.6172" x="208.8635" y="298.2348">Return book</text></g><!--entity ReserveBook--><g class="entity" data-qualified-name="Library System.ReserveBook" data-source-line="11" id="ent0007"><ellipse cx="250.6703" cy="228.4864" fill="#F1F1F1" rx="64.3903" ry="15.2781" style="stroke:#181818;stroke-width:0.5;"/><text fill="#000000" font-family="sans-serif" font-size="14" lengthAdjust="spacing" textLength="90.9863" x="205.1772" y="233.2305">Reserve book</text></g><!--entity ManageCatalog--><g class="entity" data-qualified-name="Library System.ManageCatalog" data-source-line="12" id="ent0008"><ellipse cx="250.6667" cy="430.4896" fill="#F1F1F1" rx="70.3067" ry="16.4613" style="stroke:#181818;stroke-width:0.5;"/><text fill="#000000" font-family="sans-serif" font-size="14" lengthAdjust="spacing" textLength="106.415" x="197.4591" y="435.2338">Manage catalog</text></g><!--entity RegisterBook--><g class="entity" data-qualified-name="Library System.RegisterBook" data-source-line="13" id="ent0009"><ellipse cx="250.6741" cy="361.4871" fill="#F1F1F1" rx="78.1441" ry="18.0288" style="stroke:#181818;stroke-width:0.5;"/><text fill="#000000" font-family="sans-serif" font-size="14" lengthAdjust="spacing" textLength="125.6582" x="187.845" y="366.2313">Register new book</text></g><!--entity Member--><g class="entity" data-qualified-name="Member" data-source-line="4" id="ent0001"><ellipse cx="59.2622" cy="165.7483" fill="#F1F1F1" rx="8" ry="8" style="stroke:#181818;stroke-width:0.5;"/><path d="M59.2622,173.7483 L59.2622,200.7483 M46.2622,181.7483 L72.2622,181.7483 M59.2622,200.7483 L46.2622,215.7483 M59.2622,200.7483 L72.2622,215.7483" fill="none" style="stroke:#181818;stroke-width:0.5;"/><text fill="#000000" font-family="sans-serif" font-size="14" lengthAdjust="spacing" textLength="106.5244" x="6" y="230.7834">Library Member</text></g><!--entity Librarian--><g class="entity" data-qualified-name="Librarian" data-source-line="5" id="ent0002"><ellipse cx="59.2593" cy="365.7483" fill="#F1F1F1" rx="8" ry="8" style="stroke:#181818;stroke-width:0.5;"/><path d="M59.2593,373.7483 L59.2593,400.7483 M46.2593,381.7483 L72.2593,381.7483 M59.2593,400.7483 L46.2593,415.7483 M59.2593,400.7483 L72.2593,415.7483" fill="none" style="stroke:#181818;stroke-width:0.5;"/><text fill="#000000" font-family="sans-serif" font-size="14" lengthAdjust="spacing" textLength="59.9785" x="29.27" y="430.7834">Librarian</text></g><!--link Member to SearchBooks--><g class="link" data-entity-1="ent0001" data-entity-2="ent0004" data-link-type="dependency" data-source-line="16" id="lnk10"><path d="M113.02,186.0183 C137.43,181.6383 161.5788,177.3027 186.6188,172.8027" fill="none" id="Member-to-SearchBooks" style="stroke:#181818;stroke-width:1;"/><polygon fill="#181818" points="191.54,171.9183,181.9744,169.5733,186.6188,172.8027,183.3894,177.4471,191.54,171.9183" style="stroke:#181818;stroke-width:1;stroke-linejoin:miter;stroke-miterlimit:10;"/></g><!--link Member to BorrowBook--><g class="link" data-entity-1="ent0001" data-entity-2="ent0005" data-link-type="dependency" data-source-line="17" id="lnk11"><path d="M103.03,157.0883 C116.84,146.0883 132.69,134.8283 148.52,126.4883 C166.04,117.2583 181.8726,111.5126 199.9226,106.3526" fill="none" id="Member-to-BorrowBook" style="stroke:#181818;stroke-width:1;"/><polygon fill="#181818" points="204.73,104.9783,194.9772,103.6061,199.9226,106.3526,197.1761,111.298,204.73,104.9783" style="stroke:#181818;stroke-width:1;stroke-linejoin:miter;stroke-miterlimit:10;"/></g><!--link Member to ReturnBook--><g class="link" data-entity-1="ent0001" data-entity-2="ent0006" data-link-type="dependency" data-source-line="18" id="lnk12"><path d="M105.97,234.2083 C119.12,244.0583 133.89,253.9783 148.52,261.4883 C166.38,270.6583 182.562,276.4461 200.782,281.6461" fill="none" id="Member-to-ReturnBook" style="stroke:#181818;stroke-width:1;"/><polygon fill="#181818" points="205.59,283.0183,198.0333,276.7019,200.782,281.6461,195.8378,284.3947,205.59,283.0183" style="stroke:#181818;stroke-width:1;stroke-linejoin:miter;stroke-miterlimit:10;"/></g><!--link Member to ReserveBook--><g class="link" data-entity-1="ent0001" data-entity-2="ent0007" data-link-type="dependency" data-source-line="19" id="lnk13"><path d="M113.02,204.6783 C139.51,209.2983 166.5641,214.0106 192.9241,218.6006" fill="none" id="Member-to-ReserveBook" style="stroke:#181818;stroke-width:1;"/><polygon fill="#181818" points="197.85,219.4583,189.6696,213.9737,192.9241,218.6006,188.2972,221.8551,197.85,219.4583" style="stroke:#181818;stroke-width:1;stroke-linejoin:miter;stroke-miterlimit:10;"/></g><!--link Librarian to ManageCatalog--><g class="link" data-entity-1="ent0002" data-entity-2="ent0008" data-link-type="dependency" data-source-line="20" id="lnk14"><path d="M89.44,400.8783 C117.36,406.0383 155.2533,413.0394 189.6033,419.3894" fill="none" id="Librarian-to-ManageCatalog" style="stroke:#181818;stroke-width:1;"/><polygon fill="#181818" points="194.52,420.2983,186.3971,414.7289,189.6033,419.3894,184.9428,422.5956,194.52,420.2983" style="stroke:#181818;stroke-width:1;stroke-linejoin:miter;stroke-miterlimit:10;"/></g><!--link Librarian to RegisterBook--><g class="link" data-entity-1="ent0002" data-entity-2="ent0009" data-link-type="dependency" data-source-line="21" id="lnk15"><path d="M89.44,390.2483 C115.59,385.5583 149.8987,379.4017 182.9887,373.4617" fill="none" id="Librarian-to-RegisterBook" style="stroke:#181818;stroke-width:1;"/><polygon fill="#181818" points="187.91,372.5783,178.3449,370.2314,182.9887,373.4617,179.7583,378.1055,187.91,372.5783" style="stroke:#181818;stroke-width:1;stroke-linejoin:miter;stroke-miterlimit:10;"/></g><?plantuml-src PP11Zi8m34NtEONLFLTW0TjX0oTmYmaH9P4S0weGTv_6cIaExEplf_zjZtGIa0GS_5dW69W62Iaw2J8I_8IUaIV8KnQwmYqJ39WfEuU398Rk7zZHjIVk0FDVsG81eywMphaIXD7F8Ol9GLCwU3eeKIK9kWCX3sSupMPzIfUiFbNSbDwocyIS7iefLlk2MMfFSkFufch_JMNYErbCXKzkXn5zUOlWc7pzW4hRghIUFimdCaHwMEEgglFBkVf0MAtMpPr6DdSPrTpHgE-rb_Vhf5spdTcTVW40?></g></svg>